<svg id="svg" xmlns="http://www.w3.org/2000/svg" xmlns:xlink="http://www.w3.org/1999/xlink" width="64" height="64" viewBox="0, 0, 64,64"><g id="svgg"><path id="path0" d="M247.492 176.269 C 226.149 176.806,209.239 178.611,192.873 182.099 C 175.875 185.721,157.580 188.117,139.365 189.105 C 136.779 189.245,136.127 189.355,136.127 189.651 C 136.127 191.901,139.684 205.693,140.957 208.381 C 142.236 211.080,145.095 219.038,146.004 222.429 C 146.900 225.769,148.383 230.796,149.933 235.742 C 155.805 254.490,157.054 269.213,155.970 306.921 C 155.551 321.463,155.859 323.928,158.308 325.637 C 158.749 325.945,159.168 326.272,159.238 326.363 C 159.424 326.605,166.164 328.658,168.688 329.242 C 170.550 329.673,183.759 330.658,189.714 330.811 C 197.114 331.001,202.463 330.771,214.095 329.763 C 238.529 327.645,236.941 329.332,236.198 306.286 C 235.164 274.224,235.492 265.891,238.333 252.063 C 238.965 248.990,239.706 245.162,239.980 243.556 C 240.489 240.573,243.481 229.975,244.783 226.540 C 245.181 225.492,246.609 221.321,247.958 217.270 C 249.307 213.219,250.689 209.219,251.030 208.381 C 252.005 205.982,253.840 199.313,254.558 195.556 C 255.759 189.277,257.256 179.061,257.265 177.079 L 257.270 176.000 256.063 176.042 C 255.400 176.064,251.543 176.167,247.492 176.269 " stroke="none" fill="#fbc42c" fill-rule="evenodd"></path><path id="path1" d="M178.413 42.065 C 156.264 43.215,132.218 47.357,124.263 51.391 C 122.069 52.504,122.131 50.872,123.377 74.667 C 123.821 83.136,123.943 116.391,123.558 123.595 L 123.392 126.682 125.622 126.867 C 134.678 127.622,164.870 123.062,187.937 117.455 C 209.960 112.103,228.201 110.143,252.063 110.565 C 259.432 110.696,261.589 110.651,264.677 110.302 L 268.402 109.882 268.261 100.719 C 268.176 95.216,268.241 88.816,268.422 84.698 C 268.589 80.927,268.888 74.243,269.088 69.846 C 269.287 65.448,269.527 59.887,269.621 57.488 L 269.791 53.126 269.121 52.505 C 265.631 49.271,242.225 44.521,222.603 43.064 C 219.670 42.846,216.127 42.541,214.730 42.386 C 212.326 42.119,182.461 41.854,178.413 42.065 M182.513 55.353 C 185.229 56.205,188.952 58.745,188.952 59.746 C 188.952 59.870,189.450 59.563,190.058 59.065 C 190.666 58.566,191.257 58.159,191.371 58.159 C 191.486 58.159,191.759 58.002,191.980 57.811 C 195.380 54.859,202.757 56.095,206.857 60.305 L 208.889 62.390 209.778 61.994 C 211.089 61.409,217.836 61.422,219.446 62.013 C 222.103 62.988,226.286 66.052,226.286 67.022 C 226.286 67.146,226.447 67.309,226.645 67.385 C 226.842 67.461,227.412 68.359,227.911 69.380 C 233.002 79.808,226.118 91.351,214.694 91.539 L 211.865 91.586 210.123 93.364 C 206.751 96.806,202.885 97.689,197.968 96.139 C 197.559 96.010,197.349 96.190,196.887 97.069 C 196.042 98.673,193.078 101.587,192.291 101.587 C 192.131 101.587,192.000 101.677,192.000 101.786 C 192.000 101.895,191.629 102.133,191.175 102.315 C 184.791 104.876,177.969 102.546,174.920 96.765 L 174.185 95.370 172.616 95.444 C 160.772 96.000,155.756 81.256,165.305 73.951 C 165.906 73.492,165.908 73.474,165.510 72.236 C 164.479 69.024,164.818 65.422,166.466 62.095 C 167.308 60.396,169.348 57.905,169.898 57.905 C 170.041 57.905,170.159 57.799,170.159 57.669 C 170.159 57.311,172.840 55.855,174.446 55.341 C 176.462 54.696,180.437 54.702,182.513 55.353 M274.896 122.540 C 274.464 122.679,274.093 122.879,274.071 122.984 C 273.960 123.520,274.092 126.041,274.215 125.714 C 274.294 125.505,274.461 125.058,274.586 124.721 C 275.268 122.878,275.352 124.805,274.782 129.250 C 274.459 131.772,274.135 133.775,274.061 133.701 C 273.929 133.569,271.507 125.004,271.497 124.635 C 271.485 124.179,272.034 124.501,272.254 125.079 C 272.527 125.798,272.861 125.949,272.674 125.270 C 272.607 125.025,272.483 124.414,272.399 123.912 C 272.201 122.734,271.241 122.432,268.100 122.559 C 264.636 122.699,264.540 122.766,265.402 124.455 C 265.950 125.530,266.303 125.787,266.085 124.952 C 266.002 124.635,266.077 124.444,266.285 124.444 C 266.804 124.444,269.808 133.150,269.665 134.240 C 269.624 134.552,269.810 135.050,270.078 135.346 C 270.427 135.731,270.488 135.963,270.292 136.159 C 270.097 136.354,270.192 136.689,270.628 137.330 C 271.443 138.531,272.762 146.288,272.762 149.878 C 272.762 150.590,272.031 149.926,271.813 149.016 C 271.562 147.972,271.552 148.001,271.523 149.898 L 271.492 151.860 272.317 152.294 C 272.771 152.532,273.486 152.703,273.905 152.673 C 274.324 152.643,275.242 152.770,275.945 152.956 C 277.408 153.343,279.365 153.243,279.365 152.781 C 279.365 152.212,278.560 149.717,278.293 149.460 C 278.113 149.286,278.077 149.407,278.179 149.843 C 278.363 150.627,278.057 151.178,277.547 150.982 C 276.621 150.627,275.911 139.591,276.752 138.624 C 277.049 138.283,277.061 138.091,276.813 137.629 C 276.559 137.153,276.578 137.004,276.926 136.750 C 277.265 136.502,277.294 136.311,277.077 135.741 C 276.842 135.121,277.629 127.999,278.235 125.259 C 278.411 124.468,278.857 124.805,278.857 125.729 C 278.857 127.203,279.308 126.441,279.430 124.762 C 279.598 122.448,277.840 121.587,274.896 122.540 M256.889 123.172 C 256.190 123.289,254.933 123.399,254.095 123.418 C 253.257 123.436,252.042 123.591,251.395 123.762 L 250.219 124.072 250.597 125.020 C 250.991 126.008,251.589 126.366,251.294 125.437 C 251.160 125.014,251.221 124.924,251.593 124.996 C 252.419 125.155,253.042 132.729,252.315 133.768 C 252.050 134.147,252.017 134.369,252.208 134.487 C 252.361 134.581,252.420 134.919,252.340 135.237 C 252.252 135.590,252.342 135.936,252.572 136.128 C 253.195 136.644,254.463 144.645,254.474 148.127 C 254.478 149.262,253.805 148.973,253.587 147.746 C 253.322 146.251,253.013 147.256,252.978 149.727 L 252.952 151.517 253.905 151.874 C 255.193 152.358,259.158 152.225,260.051 151.668 C 260.407 151.446,260.728 151.248,260.764 151.228 C 260.901 151.152,259.989 147.417,259.778 147.187 C 259.647 147.046,259.556 147.334,259.556 147.886 C 259.556 152.261,257.967 143.268,257.714 137.462 C 257.661 136.240,257.969 135.883,259.083 135.877 C 260.727 135.867,260.816 136.140,261.639 143.713 L 262.391 150.635 263.323 151.501 C 264.418 152.520,266.037 152.690,267.471 151.937 C 267.937 151.692,268.351 151.478,268.392 151.460 C 268.531 151.400,267.613 147.937,267.394 147.695 C 267.267 147.556,267.175 147.859,267.175 148.415 C 267.175 149.070,267.074 149.342,266.857 149.270 C 266.643 149.199,266.322 147.265,265.869 143.314 C 265.142 136.976,265.011 136.558,263.445 135.590 L 262.562 135.044 263.322 134.676 C 264.644 134.035,264.765 133.306,264.292 128.828 C 263.839 124.548,263.687 124.164,262.192 123.531 C 261.146 123.088,258.475 122.907,256.889 123.172 M245.079 124.191 C 241.324 124.481,236.698 125.319,236.698 125.709 C 236.698 125.810,236.824 126.252,236.977 126.692 C 237.290 127.590,237.714 127.758,237.714 126.984 C 237.714 126.646,237.884 126.476,238.222 126.476 C 238.502 126.476,238.731 126.619,238.732 126.794 C 238.734 126.968,238.906 128.564,239.115 130.341 C 239.442 133.120,239.446 133.714,239.141 134.598 C 238.918 135.247,238.879 135.681,239.037 135.779 C 239.174 135.863,239.231 136.220,239.164 136.572 C 239.093 136.944,239.245 137.556,239.528 138.036 C 239.895 138.657,240.168 140.229,240.639 144.414 C 241.390 151.090,241.378 150.603,240.789 150.603 C 240.239 150.603,240.000 150.130,240.000 149.044 C 240.000 148.604,239.894 148.353,239.746 148.444 C 239.606 148.531,239.492 149.610,239.492 150.843 L 239.492 153.085 240.317 153.256 C 241.310 153.461,241.465 153.459,244.717 153.188 C 246.124 153.070,247.413 152.889,247.581 152.786 C 247.749 152.682,248.601 152.593,249.474 152.588 C 251.332 152.577,252.400 151.979,251.978 151.185 C 251.638 150.548,250.866 143.161,251.059 142.394 C 251.189 141.876,251.089 141.701,250.507 141.421 C 249.759 141.062,249.337 140.392,248.932 138.921 C 248.696 138.065,248.686 138.086,248.661 139.474 C 248.639 140.701,248.538 140.992,247.986 141.426 C 247.393 141.892,247.359 142.021,247.587 142.905 C 248.078 144.801,248.439 149.513,248.137 150.077 C 247.795 150.715,246.324 150.804,245.836 150.216 C 245.480 149.787,244.270 139.674,244.378 138.032 C 244.437 137.135,244.519 137.016,245.079 137.016 C 245.680 137.016,245.710 137.083,245.636 138.242 C 245.556 139.500,245.870 140.190,246.524 140.190 C 246.781 140.190,246.841 140.031,246.723 139.661 C 246.612 139.311,246.723 138.945,247.049 138.582 C 247.818 137.726,247.889 137.232,247.343 136.537 L 246.841 135.899 247.415 135.592 L 247.990 135.285 247.423 135.032 C 246.815 134.761,246.704 134.474,247.111 134.222 C 247.857 133.761,246.016 131.337,245.168 131.662 C 244.752 131.822,244.716 132.868,245.113 133.265 C 245.516 133.669,245.194 134.349,244.599 134.349 C 243.581 134.349,242.504 126.232,243.432 125.553 C 244.952 124.442,245.959 125.379,245.964 127.906 C 245.967 129.109,246.069 129.776,246.251 129.777 C 246.840 129.779,247.873 130.843,247.873 131.447 C 247.873 131.786,247.968 132.063,248.083 132.063 C 248.198 132.063,248.244 131.732,248.185 131.327 C 248.080 130.613,248.645 129.734,249.362 129.492 C 249.560 129.426,249.574 129.127,249.410 128.508 C 249.280 128.019,249.138 126.876,249.095 125.968 C 249.013 124.253,248.801 123.944,247.746 123.998 C 247.467 124.012,246.267 124.099,245.079 124.191 M259.132 124.509 C 259.623 124.868,260.408 130.564,260.268 132.754 L 260.190 133.968 259.025 134.044 C 257.418 134.148,257.273 133.882,256.871 130.100 C 256.681 128.316,256.465 126.437,256.390 125.923 C 256.170 124.416,257.832 123.559,259.132 124.509 M233.270 125.631 C 230.638 125.851,229.667 126.806,230.603 128.254 C 230.795 128.551,230.850 128.481,230.853 127.937 C 230.856 127.483,230.992 127.238,231.243 127.238 C 231.647 127.238,231.635 128.495,231.180 134.349 C 231.003 136.614,231.062 141.176,231.272 141.516 C 231.340 141.625,231.282 141.714,231.143 141.714 C 230.857 141.714,230.699 141.267,230.471 139.810 C 230.384 139.251,230.186 138.534,230.031 138.217 C 229.824 137.793,229.826 137.565,230.038 137.353 C 230.234 137.156,230.246 136.917,230.076 136.598 C 229.820 136.120,228.323 128.738,228.319 127.937 C 228.317 127.277,228.802 127.398,229.079 128.127 C 229.440 129.075,229.587 128.902,229.587 127.531 L 229.587 126.300 228.762 126.357 C 228.308 126.388,227.422 126.488,226.794 126.579 C 226.165 126.670,225.308 126.786,224.889 126.837 C 222.495 127.126,221.767 128.033,222.730 129.524 C 222.929 129.831,222.977 129.793,222.980 129.325 C 222.984 128.780,223.605 128.282,223.906 128.583 C 224.116 128.793,223.485 137.439,223.210 138.124 C 223.078 138.454,223.065 138.854,223.183 139.013 C 223.483 139.419,223.570 143.492,223.278 143.492 C 223.057 143.492,222.579 141.244,222.359 139.175 C 222.307 138.686,221.856 136.229,221.357 133.714 C 220.859 131.200,220.449 129.114,220.447 129.079 C 220.431 128.735,221.466 129.142,221.588 129.527 C 221.857 130.372,222.222 129.827,222.222 128.583 L 222.222 127.419 220.381 127.595 C 216.448 127.973,214.206 128.556,214.457 129.136 C 214.519 129.279,214.710 129.825,214.881 130.349 C 215.257 131.504,215.619 131.587,215.619 130.519 C 215.619 130.007,215.729 129.771,215.937 129.837 C 216.486 130.014,218.064 138.540,217.717 139.459 C 217.480 140.088,217.497 140.245,217.819 140.368 C 218.097 140.475,218.166 140.728,218.060 141.258 C 217.955 141.781,218.065 142.206,218.436 142.707 C 218.826 143.235,219.267 145.089,220.160 149.961 C 221.466 157.084,221.755 157.746,223.222 156.961 C 223.492 156.817,224.078 156.698,224.526 156.698 C 225.070 156.698,225.536 156.485,225.938 156.052 L 226.537 155.405 226.271 151.671 C 225.955 147.233,226.042 140.297,226.413 140.362 C 226.883 140.443,228.006 145.862,229.230 153.945 C 229.403 155.088,230.343 155.611,231.462 155.186 C 231.846 155.040,232.468 154.921,232.844 154.921 C 234.218 154.921,234.286 154.514,234.286 146.251 C 234.286 139.371,234.325 138.681,234.741 138.219 C 235.140 137.776,235.148 137.695,234.805 137.563 C 234.305 137.371,234.301 136.790,234.796 136.379 C 235.136 136.097,235.129 136.022,234.733 135.731 C 233.995 135.187,234.338 127.305,235.111 127.048 C 235.286 126.989,235.438 127.151,235.449 127.407 C 235.475 127.987,236.162 126.573,236.179 125.905 C 236.191 125.443,235.871 125.413,233.270 125.631 M211.937 128.779 C 211.657 128.890,210.682 128.988,209.769 128.998 C 208.805 129.008,207.504 129.229,206.664 129.524 C 205.869 129.803,204.766 130.032,204.211 130.032 C 203.206 130.032,201.397 130.873,201.397 131.341 C 201.397 131.861,201.985 133.981,202.193 134.210 C 202.321 134.350,202.413 134.068,202.413 133.538 C 202.413 132.687,202.973 132.039,203.280 132.536 C 203.346 132.644,203.632 134.839,203.914 137.414 C 204.398 141.826,204.379 143.333,203.828 144.224 C 203.732 144.380,203.787 144.508,203.950 144.508 C 204.141 144.508,204.205 144.800,204.129 145.318 C 204.052 145.842,204.184 146.422,204.502 146.960 C 205.093 147.964,206.406 158.394,205.993 158.807 C 205.508 159.292,204.952 158.772,204.952 157.834 C 204.952 157.291,204.850 156.986,204.698 157.079 C 204.559 157.166,204.444 158.071,204.444 159.092 L 204.444 160.947 205.608 161.106 C 206.248 161.194,206.962 161.165,207.195 161.042 C 207.428 160.919,208.305 160.683,209.143 160.517 C 209.981 160.351,211.508 159.938,212.537 159.600 C 213.565 159.261,214.701 158.984,215.060 158.984 C 216.009 158.984,216.912 158.061,216.646 157.362 C 216.315 156.492,215.808 151.341,215.909 149.869 C 215.997 148.582,215.974 148.528,215.293 148.392 C 214.509 148.235,214.204 147.803,213.866 146.364 L 213.638 145.397 213.613 146.721 C 213.592 147.801,213.451 148.201,212.848 148.888 C 212.306 149.505,212.170 149.840,212.338 150.140 C 212.740 150.859,213.218 156.675,212.915 157.156 C 212.509 157.800,211.103 158.136,210.677 157.691 C 209.757 156.731,209.019 144.965,209.868 144.804 C 210.631 144.659,210.864 145.101,210.575 146.147 C 210.285 147.198,210.395 147.700,210.963 147.918 C 211.512 148.128,211.893 147.835,211.573 147.449 C 211.385 147.223,211.490 146.892,211.941 146.279 C 212.676 145.283,212.737 144.604,212.151 143.957 C 211.760 143.524,211.761 143.459,212.170 143.007 C 212.588 142.545,212.583 142.514,212.056 142.347 C 211.655 142.219,211.581 142.096,211.784 141.892 C 212.358 141.318,212.106 140.191,211.301 139.734 C 210.882 139.496,210.593 139.159,210.658 138.984 C 210.838 138.506,210.422 138.603,209.923 139.155 C 209.506 139.616,209.505 139.693,209.913 140.553 C 210.371 141.519,210.138 142.222,209.359 142.222 C 208.782 142.222,208.582 141.302,208.096 136.418 C 207.598 131.418,207.642 131.087,208.844 130.765 C 210.187 130.406,210.564 131.088,210.619 133.971 C 210.666 136.458,210.679 136.510,211.302 136.635 C 211.743 136.723,212.107 137.110,212.497 137.905 L 213.058 139.048 213.069 137.886 C 213.077 136.979,213.221 136.591,213.722 136.120 C 214.118 135.748,214.303 135.366,214.204 135.123 C 214.116 134.907,213.911 133.428,213.749 131.838 C 213.434 128.742,213.167 128.291,211.937 128.779 M192.635 131.940 C 191.937 132.132,190.679 132.369,189.841 132.466 C 189.003 132.564,188.186 132.661,188.026 132.682 C 187.865 132.703,187.579 132.845,187.391 132.996 C 187.202 133.147,186.804 133.346,186.507 133.437 L 185.967 133.602 186.477 135.635 C 187.011 137.760,187.332 138.083,187.208 136.370 C 187.152 135.594,187.227 135.365,187.536 135.365 C 187.756 135.365,187.938 135.565,187.940 135.810 C 187.942 136.054,188.169 138.197,188.444 140.571 C 189.044 145.741,189.087 148.036,188.598 148.705 C 188.291 149.125,188.299 149.230,188.662 149.500 C 189.007 149.757,189.026 149.898,188.767 150.322 C 188.547 150.682,188.536 150.884,188.730 151.003 C 189.805 151.668,191.335 163.048,190.349 163.048 C 190.115 163.048,189.968 162.809,189.968 162.428 C 189.968 161.307,189.531 161.511,189.367 162.708 C 188.978 165.545,189.597 166.028,192.327 165.020 C 192.996 164.773,193.847 164.571,194.218 164.571 C 194.825 164.571,196.825 163.438,196.825 163.093 C 196.825 163.017,196.639 162.289,196.411 161.477 C 195.993 159.987,195.376 159.365,195.677 160.738 C 195.843 161.492,195.481 162.019,195.157 161.495 C 195.020 161.274,193.807 151.593,193.782 150.528 C 193.760 149.565,196.165 148.652,196.765 149.397 C 196.965 149.645,198.349 160.859,198.349 162.228 C 198.349 162.400,198.564 162.540,198.826 162.540 C 199.088 162.540,199.435 162.698,199.596 162.892 C 199.985 163.362,202.219 162.696,203.398 161.760 L 204.219 161.108 203.793 159.411 C 203.380 157.767,202.703 156.945,203.005 158.454 C 203.103 158.943,203.027 159.298,202.783 159.501 C 202.579 159.670,202.408 159.766,202.403 159.714 C 201.299 148.750,201.041 147.673,199.407 147.205 L 198.613 146.977 199.356 146.130 C 200.597 144.716,200.676 143.952,200.112 138.816 C 199.521 133.446,199.560 133.609,198.664 132.778 C 197.339 131.549,195.156 131.245,192.635 131.940 M194.917 134.091 C 195.309 134.524,196.502 142.872,196.561 145.599 C 196.589 146.860,194.110 147.900,193.562 146.857 C 193.228 146.220,192.145 135.582,192.336 134.817 C 192.620 133.686,194.158 133.253,194.917 134.091 M176.254 134.639 C 175.206 134.907,173.976 135.073,173.520 135.007 C 172.890 134.917,172.533 135.034,172.032 135.499 L 171.374 136.109 171.807 138.086 C 172.317 140.412,172.826 141.200,172.634 139.365 C 172.564 138.702,172.607 138.159,172.730 138.159 C 172.852 138.159,172.952 138.251,172.952 138.364 C 172.952 138.478,173.237 141.135,173.585 144.269 C 174.287 150.585,174.367 152.643,173.928 153.081 C 173.706 153.304,173.712 153.470,173.957 153.764 C 174.134 153.977,174.207 154.341,174.118 154.572 C 174.030 154.802,174.181 155.461,174.456 156.035 C 174.800 156.757,175.116 158.513,175.477 161.719 C 176.101 167.260,176.098 167.111,175.619 167.111 C 175.365 167.111,175.238 166.857,175.238 166.349 C 175.238 165.930,175.124 165.587,174.984 165.587 C 174.841 165.587,174.730 166.298,174.730 167.210 L 174.730 168.833 175.651 168.941 C 176.157 169.000,177.157 168.912,177.873 168.746 C 178.589 168.579,179.975 168.299,180.952 168.124 C 187.021 167.035,187.780 165.784,186.955 158.238 C 186.380 152.982,186.241 152.570,184.824 151.942 L 183.870 151.520 184.603 150.744 C 185.909 149.363,185.959 148.775,185.286 142.790 C 184.331 134.294,182.843 132.952,176.254 134.639 M179.831 136.855 C 180.567 137.451,182.085 149.738,181.551 150.777 C 181.008 151.832,179.058 152.166,178.711 151.263 C 178.434 150.539,177.217 138.150,177.365 137.559 C 177.459 137.186,177.807 136.828,178.222 136.676 C 179.185 136.324,179.174 136.323,179.831 136.855 M159.619 136.933 C 153.895 137.506,153.208 139.095,154.270 149.291 C 154.754 153.926,154.858 155.783,154.671 156.432 C 154.459 157.171,154.497 157.391,154.920 157.841 C 155.377 158.328,155.387 158.422,155.034 158.927 C 154.698 159.406,154.694 159.572,155.002 160.184 C 155.502 161.175,155.597 161.688,156.059 165.841 C 156.728 171.863,157.041 172.335,160.339 172.288 C 162.866 172.252,164.996 171.522,165.977 170.356 C 166.823 169.351,166.886 163.053,166.050 163.050 C 165.484 163.047,164.571 161.858,164.571 161.124 C 164.571 160.801,164.470 160.475,164.347 160.399 C 164.223 160.323,164.131 160.846,164.142 161.563 C 164.159 162.689,164.068 162.939,163.467 163.419 C 162.858 163.904,162.804 164.058,163.032 164.657 C 163.629 166.227,163.675 170.077,163.100 170.385 C 162.384 170.768,161.393 170.740,161.050 170.327 C 160.618 169.807,159.782 160.923,160.036 159.561 C 160.224 158.552,160.185 158.374,159.680 157.965 L 159.111 157.503 159.691 156.885 C 160.203 156.339,160.226 156.229,159.883 155.945 C 159.030 155.237,157.420 141.766,158.034 140.478 C 158.436 139.636,159.473 139.467,160.085 140.144 C 160.610 140.724,161.384 146.626,161.131 148.127 C 161.010 148.849,161.057 149.079,161.326 149.079 C 162.016 149.079,162.582 149.751,163.048 151.121 L 163.520 152.508 163.538 151.067 C 163.552 149.932,163.685 149.472,164.167 148.899 C 164.625 148.356,164.718 148.062,164.537 147.738 C 164.191 147.121,163.556 141.715,163.556 139.393 C 163.556 137.449,163.549 137.431,162.755 137.034 C 162.314 136.815,161.943 136.650,161.929 136.669 C 161.916 136.688,160.876 136.806,159.619 136.933 M141.714 139.061 C 140.360 139.488,139.322 139.525,138.661 139.171 C 138.280 138.968,138.124 139.019,137.909 139.421 C 137.760 139.699,137.376 140.072,137.055 140.249 L 136.473 140.571 136.975 142.921 C 137.508 145.412,138.077 146.177,137.778 144.000 C 137.631 142.934,137.668 142.730,138.008 142.730 C 138.231 142.730,138.413 142.766,138.413 142.809 C 138.413 142.852,138.698 145.452,139.046 148.587 C 139.731 154.754,139.842 157.708,139.405 158.144 C 139.204 158.345,139.211 158.578,139.429 158.985 C 139.595 159.295,139.676 159.837,139.608 160.190 C 139.535 160.573,139.697 161.188,140.013 161.723 C 140.597 162.714,141.852 172.370,141.451 172.796 C 141.083 173.188,140.444 172.738,140.444 172.086 C 140.444 171.741,140.330 171.388,140.190 171.302 C 140.033 171.204,139.937 171.666,139.937 172.514 C 139.937 174.336,140.333 174.462,145.280 174.207 C 153.091 173.804,153.500 173.346,152.766 165.820 C 152.416 162.227,152.373 160.897,152.584 160.291 C 152.740 159.843,152.761 159.492,152.631 159.492 C 152.102 159.492,151.820 158.448,152.227 157.998 C 152.585 157.603,152.577 157.469,152.140 156.559 C 151.794 155.839,151.469 153.833,150.990 149.460 C 150.221 142.439,150.077 141.827,148.864 140.409 C 147.380 138.676,144.599 138.152,141.714 139.061 M129.016 140.121 C 128.248 140.306,127.082 140.415,126.425 140.363 C 125.599 140.297,125.192 140.371,125.103 140.602 C 125.032 140.787,124.684 141.010,124.328 141.099 C 123.527 141.300,123.527 141.367,124.334 145.206 C 124.539 146.182,124.911 145.833,124.772 144.795 C 124.656 143.925,124.993 143.195,125.349 143.550 C 125.725 143.926,126.812 156.522,126.532 157.264 C 126.261 157.982,126.290 158.135,126.797 158.674 C 127.332 159.243,127.339 159.298,126.920 159.605 C 126.496 159.914,126.498 159.986,126.964 161.045 C 127.292 161.792,127.628 163.749,127.981 166.984 C 128.609 172.725,128.594 172.190,128.127 172.190 C 127.892 172.190,127.746 171.952,127.746 171.571 C 127.746 170.748,127.336 170.523,127.143 171.241 C 126.465 173.773,127.522 174.524,131.614 174.415 C 134.516 174.337,134.677 174.234,134.303 172.697 C 133.947 171.234,133.587 170.826,133.587 171.886 C 133.587 172.664,133.270 172.959,132.965 172.464 C 132.710 172.052,131.713 161.888,131.883 161.444 C 132.090 160.904,132.912 160.889,133.350 161.417 C 133.612 161.732,133.619 161.923,133.382 162.303 C 132.906 163.064,133.021 163.994,133.644 164.430 C 134.406 164.964,134.672 164.928,134.305 164.341 C 134.047 163.928,134.123 163.718,134.813 162.932 C 135.632 161.999,135.635 161.370,134.821 160.867 C 134.631 160.749,134.725 160.545,135.100 160.262 L 135.666 159.835 134.999 159.398 L 134.331 158.960 134.842 158.310 C 135.459 157.526,135.284 157.085,133.959 156.073 C 133.312 155.580,133.073 155.226,133.161 154.891 C 133.314 154.307,133.006 154.270,132.551 154.818 C 132.270 155.156,132.288 155.428,132.659 156.473 C 133.232 158.086,132.508 158.989,131.559 157.845 C 131.199 157.412,129.686 144.423,129.896 143.572 C 130.179 142.428,132.069 142.505,132.526 143.679 C 132.881 144.593,133.425 149.787,133.288 150.961 C 133.204 151.676,133.281 151.903,133.645 152.018 C 134.271 152.217,134.882 153.201,135.267 154.628 L 135.585 155.810 135.602 154.457 C 135.616 153.322,135.735 152.988,136.340 152.383 C 136.831 151.892,136.994 151.544,136.853 151.291 C 136.509 150.677,135.828 144.052,135.917 142.185 C 135.963 141.227,135.922 140.444,135.828 140.444 C 135.733 140.444,135.484 140.273,135.275 140.064 C 134.938 139.727,134.810 139.733,134.131 140.123 C 133.426 140.527,133.253 140.531,131.890 140.173 C 130.623 139.839,130.214 139.832,129.016 140.121 M114.830 140.818 C 111.251 141.952,111.195 145.730,114.638 153.778 C 114.996 154.616,115.292 155.602,115.296 155.969 C 115.299 156.371,115.525 156.785,115.863 157.009 C 116.172 157.214,116.437 157.657,116.452 157.993 C 116.467 158.328,116.847 159.003,117.295 159.492 C 118.352 160.645,121.041 166.044,121.527 167.990 C 122.251 170.891,122.036 171.683,120.520 171.683 C 118.690 171.683,118.198 170.733,117.937 166.696 C 117.770 164.116,117.725 163.953,117.014 163.317 C 116.550 162.903,116.139 162.171,115.928 161.388 L 115.590 160.127 115.573 161.156 C 115.554 162.284,115.207 162.794,114.459 162.794 C 114.073 162.794,114.008 162.911,114.145 163.365 C 114.493 164.519,115.085 169.809,114.977 170.810 C 114.849 172.008,115.608 172.673,117.460 172.984 C 118.019 173.077,119.261 173.291,120.220 173.459 C 126.442 174.545,127.642 171.282,124.001 163.175 C 123.499 162.057,123.066 160.764,123.038 160.301 C 123.005 159.760,122.785 159.318,122.425 159.066 C 122.012 158.776,121.904 158.514,122.016 158.067 C 122.100 157.733,122.061 157.460,121.929 157.460 C 121.101 157.460,117.996 151.512,116.962 147.946 C 115.906 144.302,116.116 142.730,117.658 142.730 C 119.446 142.730,120.215 144.612,120.242 149.059 C 120.253 150.760,120.321 151.011,120.939 151.630 C 121.316 152.007,121.688 152.616,121.765 152.983 C 122.183 154.976,122.276 155.073,122.358 153.596 C 122.423 152.402,122.551 152.055,123.074 151.644 C 123.653 151.188,123.688 151.056,123.460 150.175 C 123.095 148.762,122.668 144.891,122.667 142.976 C 122.667 141.344,122.654 141.312,121.841 140.979 C 120.645 140.489,116.193 140.386,114.830 140.818 M145.630 142.182 C 146.375 143.623,147.555 156.506,147.061 157.805 C 146.883 158.275,146.915 158.515,147.188 158.742 C 147.690 159.158,147.650 159.920,147.111 160.234 C 146.867 160.376,146.785 160.496,146.929 160.500 C 148.041 160.533,149.688 171.625,148.690 172.355 C 147.703 173.077,145.778 172.561,145.778 171.575 C 145.778 171.395,145.547 169.132,145.264 166.545 C 144.907 163.277,144.825 161.644,144.996 161.195 C 145.181 160.708,145.151 160.472,144.875 160.243 C 144.391 159.840,144.407 159.066,144.906 158.787 C 145.259 158.589,145.242 158.458,144.760 157.641 C 143.493 155.493,142.495 142.061,143.570 141.624 C 144.460 141.262,145.267 141.481,145.630 142.182 M182.053 154.095 C 182.179 154.340,182.543 156.931,182.862 159.854 L 183.440 165.168 182.754 165.758 C 181.847 166.539,180.643 166.548,180.324 165.778 C 179.887 164.719,179.008 155.215,179.298 154.674 C 179.852 153.639,181.625 153.266,182.053 154.095 M278.524 160.164 C 278.164 160.524,278.368 161.016,278.876 161.016 C 279.231 161.016,279.376 160.878,279.320 160.592 C 279.230 160.125,278.796 159.892,278.524 160.164 M253.605 164.381 C 253.773 168.384,253.828 168.724,254.281 168.573 C 254.862 168.379,254.400 160.762,253.808 160.762 C 253.514 160.762,253.479 161.380,253.605 164.381 M243.631 163.503 L 242.055 165.206 242.043 163.619 C 242.033 162.227,241.972 162.032,241.544 162.032 C 241.046 162.032,240.995 164.546,241.424 168.063 C 241.671 170.099,242.378 169.484,242.227 167.365 C 242.072 165.199,242.044 165.201,244.063 167.238 C 245.210 168.395,245.890 168.889,246.336 168.889 C 246.902 168.889,246.766 168.682,245.080 166.985 L 243.188 165.080 244.825 163.429 C 246.286 161.955,246.394 161.779,245.834 161.789 C 245.393 161.797,244.738 162.306,243.631 163.503 M235.683 162.794 C 235.683 163.176,235.815 163.313,236.127 163.253 C 236.371 163.206,236.571 162.999,236.571 162.794 C 236.571 162.588,236.371 162.381,236.127 162.334 C 235.815 162.274,235.683 162.411,235.683 162.794 M226.909 163.163 C 225.774 164.298,226.449 166.131,228.130 166.482 C 230.640 167.005,230.845 169.143,228.385 169.143 C 227.985 169.143,227.520 169.006,227.352 168.838 C 227.115 168.601,226.977 168.605,226.730 168.855 C 225.830 169.768,229.254 170.345,230.320 169.460 C 231.698 168.317,231.032 166.454,229.033 165.860 C 227.335 165.356,226.762 164.451,227.606 163.606 C 227.982 163.231,229.497 163.204,229.722 163.568 C 229.834 163.750,230.001 163.739,230.248 163.534 C 230.873 163.015,230.173 162.540,228.783 162.540 C 227.794 162.540,227.402 162.670,226.909 163.163 M274.088 162.935 C 273.772 163.157,273.524 163.212,273.524 163.062 C 273.524 162.914,273.336 162.794,273.107 162.794 C 272.747 162.794,272.712 163.010,272.853 164.355 C 272.942 165.213,273.016 166.299,273.016 166.767 C 273.016 167.355,273.134 167.619,273.397 167.619 C 273.699 167.619,273.778 167.254,273.778 165.859 C 273.778 163.924,274.120 163.302,275.184 163.302 C 276.009 163.302,276.317 163.988,276.317 165.825 C 276.317 167.025,276.402 167.365,276.698 167.365 C 277.341 167.365,277.226 164.064,276.553 163.209 C 275.947 162.439,274.954 162.328,274.088 162.935 M278.603 164.424 C 278.603 166.560,278.746 167.111,279.297 167.111 C 279.593 167.111,279.646 166.928,279.524 166.317 C 279.437 165.881,279.365 164.852,279.365 164.032 C 279.365 162.875,279.280 162.540,278.984 162.540 C 278.680 162.540,278.603 162.918,278.603 164.424 M268.219 163.115 C 267.573 163.449,267.552 163.993,268.190 163.852 C 269.817 163.493,270.184 163.518,270.445 164.005 C 270.777 164.626,270.592 164.825,269.684 164.825 C 267.410 164.825,266.557 167.027,268.555 167.739 C 269.083 167.927,269.424 167.884,269.989 167.560 C 270.397 167.326,270.730 167.244,270.730 167.377 C 270.730 167.510,270.914 167.619,271.139 167.619 C 271.857 167.619,271.532 163.900,270.759 163.274 C 270.078 162.723,269.096 162.661,268.219 163.115 M212.475 165.524 C 212.668 169.613,212.821 170.667,213.225 170.667 C 213.424 170.667,213.587 170.489,213.587 170.271 C 213.587 169.913,213.641 169.913,214.152 170.271 C 215.752 171.392,217.812 169.988,217.581 167.934 C 217.369 166.058,215.833 165.149,214.195 165.930 L 213.333 166.341 213.330 165.266 C 213.325 163.844,213.095 163.048,212.689 163.048 C 212.432 163.048,212.384 163.599,212.475 165.524 M262.470 163.402 C 260.682 164.181,260.681 167.009,262.469 167.824 C 263.337 168.219,263.846 168.204,264.698 167.760 C 265.380 167.404,265.397 167.412,265.397 168.103 C 265.397 169.385,263.306 170.252,262.400 169.346 C 262.163 169.109,262.025 169.113,261.778 169.363 C 261.194 169.955,262.279 170.469,263.852 170.345 C 265.933 170.181,266.159 169.777,266.159 166.209 C 266.159 163.315,265.911 162.508,265.286 163.363 C 265.038 163.703,264.933 163.708,264.514 163.402 C 263.921 162.968,263.467 162.968,262.470 163.402 M257.092 163.582 C 256.645 163.712,256.214 163.922,256.135 164.050 C 255.868 164.483,256.506 164.605,257.382 164.288 C 258.084 164.034,258.329 164.037,258.650 164.304 C 259.259 164.809,259.134 165.333,258.405 165.333 C 256.977 165.333,256.000 165.995,256.000 166.962 C 256.000 168.314,257.762 168.934,258.837 167.961 C 259.115 167.709,259.302 167.658,259.302 167.834 C 259.302 167.995,259.488 168.127,259.715 168.127 C 260.117 168.127,260.065 165.280,259.644 164.182 C 259.547 163.928,258.078 163.193,257.930 163.324 C 257.916 163.337,257.539 163.453,257.092 163.582 M248.578 164.205 C 246.618 165.269,247.097 168.371,249.285 168.782 C 250.438 168.998,251.607 168.501,252.075 167.596 C 253.294 165.239,250.918 162.935,248.578 164.205 M264.773 164.433 C 265.535 165.194,265.562 165.817,264.870 166.696 C 263.896 167.935,262.095 167.289,262.095 165.700 C 262.095 163.994,263.615 163.275,264.773 164.433 M233.660 165.000 C 233.226 165.304,233.018 165.341,232.947 165.127 C 232.673 164.305,232.064 164.848,232.218 165.778 C 232.305 166.302,232.377 167.387,232.378 168.190 C 232.383 170.546,233.098 170.212,233.195 167.810 C 233.268 166.010,233.289 165.960,234.090 165.587 C 234.541 165.378,234.912 165.063,234.915 164.889 C 234.923 164.446,234.383 164.493,233.660 165.000 M235.940 166.413 C 235.944 168.630,236.122 169.397,236.634 169.397 C 236.937 169.397,236.985 169.195,236.861 168.444 C 236.775 167.921,236.703 166.835,236.701 166.032 C 236.699 164.904,236.612 164.571,236.317 164.571 C 236.014 164.571,235.937 164.944,235.940 166.413 M250.864 164.967 C 251.556 165.451,251.637 166.968,251.008 167.663 C 250.386 168.350,249.280 168.254,248.653 167.458 C 247.360 165.813,249.166 163.778,250.864 164.967 M221.370 167.302 L 220.757 169.270 219.928 167.429 C 219.344 166.132,218.964 165.587,218.642 165.587 C 218.121 165.587,218.293 166.131,219.687 168.896 C 220.593 170.692,220.191 172.177,218.857 171.967 C 218.752 171.950,218.667 172.108,218.667 172.317 C 218.667 172.816,219.779 172.819,220.277 172.322 C 220.596 172.003,222.730 166.088,222.730 165.523 C 222.730 164.546,221.884 165.652,221.370 167.302 M270.730 165.658 C 270.730 166.365,269.936 167.111,269.184 167.111 C 268.176 167.111,267.914 166.426,268.684 165.802 C 269.348 165.264,270.730 165.167,270.730 165.658 M258.536 167.419 C 257.845 167.979,257.432 167.993,256.998 167.471 C 256.514 166.888,257.005 166.250,258.058 166.095 C 259.138 165.936,259.416 166.707,258.536 167.419 M216.088 166.794 C 216.898 167.479,217.009 168.413,216.377 169.217 C 215.721 170.051,214.632 170.131,213.965 169.394 C 212.559 167.839,214.506 165.455,216.088 166.794 M257.085 179.111 C 256.056 189.337,253.242 202.937,251.030 208.381 C 250.689 209.219,249.307 213.219,247.958 217.270 C 246.609 221.321,245.181 225.492,244.783 226.540 C 243.481 229.975,240.489 240.573,239.980 243.556 C 239.706 245.162,238.965 248.990,238.333 252.063 C 235.492 265.891,235.164 274.224,236.198 306.286 C 236.941 329.332,238.529 327.645,214.095 329.763 C 202.463 330.771,197.114 331.001,189.714 330.811 C 183.759 330.658,170.550 329.673,168.688 329.242 C 166.164 328.658,159.424 326.605,159.238 326.363 C 159.168 326.272,158.749 325.945,158.308 325.637 C 155.859 323.928,155.551 321.463,155.970 306.921 C 157.054 269.213,155.805 254.490,149.933 235.742 C 148.383 230.796,146.900 225.769,146.004 222.429 C 145.090 219.019,142.232 211.072,140.943 208.354 C 139.719 205.772,139.044 203.376,137.348 195.589 L 136.001 189.401 131.937 189.583 C 129.702 189.683,127.842 189.795,127.803 189.830 C 127.102 190.489,132.753 212.112,136.147 221.755 C 140.277 233.488,141.059 235.822,142.340 240.220 C 143.884 245.525,145.407 251.374,146.384 255.755 C 148.406 264.815,148.508 284.491,146.646 306.286 C 145.529 319.371,146.292 329.053,148.643 331.603 C 156.616 340.253,225.577 341.875,241.092 333.777 C 246.155 331.135,247.005 324.776,245.225 302.857 C 243.904 286.590,243.906 267.482,245.229 259.053 C 246.379 251.728,250.433 237.728,255.473 223.674 C 260.486 209.697,263.714 196.418,265.641 181.841 C 265.927 179.676,266.210 177.533,266.271 177.079 L 266.381 176.254 261.876 176.254 L 257.372 176.254 257.085 179.111 " stroke="none" fill="#fbfbfb" fill-rule="evenodd"></path><path id="path2" d="M174.095 31.755 C 148.654 33.015,118.047 38.488,113.648 42.565 C 112.793 43.357,112.816 44.982,114.027 69.587 C 114.650 82.248,114.803 90.368,114.549 97.270 C 114.408 101.111,114.291 109.151,114.289 115.136 L 114.286 126.018 110.159 125.815 C 104.270 125.527,90.472 125.598,85.841 125.941 C 81.081 126.294,75.628 126.956,75.360 127.213 C 75.252 127.317,79.519 133.497,84.842 140.949 C 91.942 150.887,94.489 154.637,94.405 155.026 C 94.342 155.317,91.815 161.772,88.790 169.369 C 85.764 176.967,83.342 183.236,83.408 183.302 C 83.473 183.367,86.190 183.012,89.446 182.513 C 97.084 181.341,102.056 180.702,102.223 180.869 C 102.459 181.105,101.601 186.833,101.082 188.489 C 100.805 189.372,100.577 190.195,100.575 190.318 C 100.573 190.445,104.478 190.461,109.651 190.355 L 118.730 190.170 119.336 193.434 C 121.442 204.780,124.575 215.717,129.922 230.385 C 134.443 242.787,138.867 258.600,139.789 265.651 C 141.160 276.146,140.936 296.851,139.254 314.921 C 138.376 324.365,138.697 335.864,139.953 339.931 C 142.112 346.919,159.379 350.137,196.190 350.413 C 226.253 350.638,244.713 348.218,250.273 343.323 C 253.573 340.418,254.199 331.749,252.580 311.365 C 251.216 294.200,251.112 276.152,252.320 266.511 C 253.159 259.816,257.400 244.153,261.245 233.548 C 269.326 211.261,272.615 198.591,274.896 180.952 L 275.455 176.635 278.108 176.708 C 281.525 176.801,290.216 177.439,294.564 177.915 C 296.428 178.119,298.164 178.286,298.421 178.286 C 298.836 178.286,298.765 177.987,297.801 175.683 C 296.205 171.864,294.359 165.725,294.352 164.215 C 294.347 163.215,304.083 164.155,308.265 165.558 C 309.481 165.966,310.506 166.271,310.543 166.236 C 310.684 166.103,305.388 154.682,299.575 142.580 L 297.612 138.493 298.800 135.469 C 302.942 124.922,308.418 116.442,313.651 112.468 L 314.540 111.793 313.778 111.488 C 307.768 109.088,290.106 107.673,279.730 108.759 L 277.935 108.947 277.680 99.489 C 277.414 89.652,277.536 82.446,278.205 68.317 C 279.513 40.710,279.656 43.225,276.700 41.890 C 269.017 38.422,248.641 34.513,229.841 32.901 C 217.828 31.870,185.283 31.202,174.095 31.755 M203.683 41.901 C 229.868 42.489,260.002 47.129,268.516 51.884 C 270.004 52.715,270.020 53.707,268.906 75.851 C 268.503 83.875,268.363 89.779,268.376 98.349 C 268.385 104.740,268.376 109.969,268.355 109.970 C 268.334 109.971,266.946 110.148,265.270 110.362 C 262.874 110.669,259.561 110.748,249.778 110.734 C 223.759 110.695,209.293 112.311,187.302 117.716 C 163.805 123.490,130.717 128.251,123.960 126.829 L 123.349 126.700 123.579 114.334 C 123.908 96.655,123.821 87.834,123.182 74.413 C 122.873 67.917,122.602 60.262,122.580 57.401 L 122.540 52.198 123.810 51.502 C 128.874 48.726,144.754 45.214,160.268 43.439 C 174.179 41.847,184.684 41.475,203.683 41.901 M174.984 55.541 C 173.380 56.055,170.626 57.461,170.480 57.841 C 170.413 58.016,170.251 58.159,170.119 58.159 C 169.888 58.159,169.450 58.585,168.127 60.100 C 165.649 62.937,164.677 68.196,165.847 72.440 L 166.179 73.642 164.505 75.175 C 156.330 82.666,162.146 96.119,173.098 95.053 L 174.387 94.928 175.130 96.401 C 176.021 98.166,178.592 100.818,180.110 101.537 C 182.723 102.775,183.218 102.895,185.796 102.916 C 190.321 102.952,194.854 100.445,196.464 97.016 C 197.105 95.651,197.462 95.465,198.559 95.925 C 202.446 97.554,207.743 96.008,210.503 92.440 L 211.429 91.243 214.887 91.141 C 216.900 91.081,218.492 90.920,218.696 90.755 C 218.890 90.599,219.415 90.393,219.865 90.297 C 220.314 90.201,221.090 89.845,221.590 89.505 C 222.090 89.166,222.598 88.889,222.720 88.889 C 222.842 88.889,222.980 88.803,223.026 88.698 C 223.073 88.594,223.769 87.956,224.572 87.281 C 229.813 82.881,230.844 72.488,226.502 67.827 C 226.243 67.550,226.032 67.243,226.032 67.146 C 226.032 66.960,224.592 65.542,223.427 64.579 C 220.463 62.132,214.900 61.041,210.911 62.126 C 208.247 62.850,208.330 62.853,207.900 62.021 C 206.832 59.955,203.896 57.878,200.850 57.033 C 199.254 56.590,195.419 56.493,195.175 56.889 C 195.088 57.029,194.791 57.143,194.515 57.143 C 193.821 57.143,192.132 58.022,190.532 59.217 L 189.191 60.219 187.611 58.784 C 184.099 55.593,178.950 54.271,174.984 55.541 M271.365 122.519 C 272.148 122.791,272.418 123.038,272.541 123.595 C 272.951 125.440,272.657 126.338,272.034 125.143 C 271.737 124.573,271.737 124.573,271.838 125.206 C 272.046 126.498,273.874 132.825,274.039 132.825 C 274.169 132.825,275.158 125.900,275.172 124.889 C 275.181 124.259,274.653 124.718,274.587 125.397 C 274.417 127.166,273.787 125.997,273.781 123.901 C 273.777 122.519,274.055 122.369,276.825 122.261 C 279.563 122.154,279.937 122.617,279.456 125.524 C 279.257 126.725,278.614 126.818,278.577 125.651 L 278.551 124.825 278.365 125.601 C 277.769 128.094,276.994 135.179,277.245 135.845 C 277.463 136.422,277.437 136.607,277.106 136.823 C 276.755 137.052,276.746 137.169,277.039 137.658 C 277.242 137.996,277.283 138.290,277.141 138.383 C 276.140 139.037,276.172 143.316,277.227 150.032 C 277.398 151.123,278.095 151.157,278.095 150.074 C 278.095 148.367,279.554 151.367,279.613 153.196 C 279.627 153.611,273.422 152.960,272.197 152.418 L 271.251 152.000 271.245 149.884 C 271.238 147.709,271.774 146.924,271.955 148.845 C 272.064 150.014,272.508 150.444,272.508 149.381 C 272.508 144.927,271.216 138.074,270.166 136.956 C 269.869 136.640,269.760 136.381,269.924 136.381 C 270.425 136.381,270.263 135.328,269.741 135.192 C 269.351 135.090,269.283 134.892,269.378 134.136 C 269.498 133.182,266.958 125.125,266.363 124.571 C 266.171 124.393,266.132 124.493,266.231 124.904 C 266.493 125.986,265.643 125.403,265.088 124.120 C 264.425 122.585,264.401 122.602,267.498 122.404 C 268.927 122.313,270.152 122.222,270.222 122.202 C 270.292 122.183,270.806 122.325,271.365 122.519 M261.650 123.188 C 263.714 123.761,263.930 124.179,264.412 128.541 C 264.909 133.032,264.849 133.616,263.807 134.493 C 263.076 135.108,263.264 135.822,264.170 135.865 C 264.892 135.899,265.383 137.752,265.890 142.349 C 266.566 148.493,266.659 149.079,266.954 149.079 C 267.095 149.079,267.127 148.704,267.031 148.190 C 266.645 146.135,267.624 147.214,268.125 149.397 L 268.606 151.492 267.910 151.802 C 267.527 151.973,267.141 152.230,267.052 152.374 C 266.760 152.846,264.064 152.371,263.475 151.744 C 263.185 151.436,262.800 151.135,262.619 151.074 C 262.384 150.996,262.070 148.944,261.534 143.990 C 260.977 138.849,260.675 136.899,260.382 136.571 C 259.871 136.000,258.080 135.959,257.867 136.515 C 257.637 137.114,258.958 148.330,259.297 148.661 C 259.525 148.884,259.554 148.727,259.420 148.000 C 259.067 146.076,259.965 146.861,260.438 148.889 C 260.674 149.902,260.909 150.866,260.959 151.032 C 261.121 151.562,259.040 152.360,257.871 152.216 C 257.294 152.145,256.415 152.199,255.918 152.336 C 255.180 152.540,254.824 152.492,253.983 152.076 L 252.952 151.566 252.952 149.180 C 252.952 147.228,253.022 146.794,253.333 146.794 C 253.579 146.794,253.716 147.042,253.718 147.492 C 253.722 148.231,254.100 149.033,254.333 148.799 C 254.557 148.575,253.256 137.712,252.930 137.082 C 252.767 136.766,252.461 136.310,252.250 136.068 C 251.927 135.699,251.921 135.563,252.207 135.218 C 252.496 134.869,252.480 134.770,252.096 134.556 C 251.665 134.314,251.665 134.281,252.094 133.808 C 252.635 133.209,252.657 132.070,252.203 127.937 C 251.913 125.294,251.429 123.837,251.429 125.608 C 251.429 125.983,251.305 126.224,251.142 126.169 C 250.701 126.022,250.048 124.200,250.333 123.914 C 250.950 123.298,259.964 122.719,261.650 123.188 M248.846 123.938 C 249.204 123.939,249.276 124.264,249.311 126.033 C 249.334 127.185,249.461 128.412,249.594 128.761 C 249.803 129.310,249.738 129.453,249.108 129.836 C 248.502 130.205,248.381 130.448,248.381 131.298 C 248.381 132.596,248.040 132.606,247.654 131.320 C 247.413 130.514,247.185 130.266,246.470 130.030 C 245.759 129.795,245.630 129.656,245.816 129.324 C 246.558 127.998,245.657 125.460,244.444 125.460 C 243.097 125.460,243.029 125.735,243.439 129.536 C 243.902 133.830,243.965 134.095,244.534 134.095 C 245.229 134.095,245.356 133.832,244.943 133.243 C 244.432 132.514,244.477 131.878,245.063 131.564 C 245.727 131.209,246.161 131.233,246.031 131.619 C 245.972 131.794,246.260 132.142,246.671 132.393 C 247.325 132.793,247.404 132.966,247.307 133.790 C 247.229 134.451,247.315 134.820,247.598 135.032 C 247.961 135.304,247.954 135.367,247.533 135.680 C 247.108 135.995,247.102 136.058,247.469 136.362 C 248.051 136.845,247.966 137.755,247.261 138.593 C 246.816 139.122,246.713 139.434,246.883 139.738 C 247.236 140.369,246.687 140.558,245.936 140.066 C 245.346 139.679,245.305 139.540,245.459 138.420 C 245.643 137.083,245.303 136.557,244.666 137.193 C 244.329 137.530,245.230 148.220,245.737 149.892 C 246.175 151.340,248.127 150.521,248.127 148.889 C 248.127 147.316,247.672 143.566,247.373 142.671 C 247.175 142.079,247.249 141.869,247.888 141.231 C 248.497 140.621,248.635 140.269,248.635 139.321 C 248.635 137.832,249.034 137.815,249.256 139.295 C 249.425 140.422,250.291 141.460,251.064 141.460 C 251.308 141.460,251.357 141.802,251.255 142.794 C 251.108 144.219,251.799 150.656,252.169 151.318 C 252.549 151.997,251.337 152.709,249.685 152.776 C 248.263 152.834,242.390 153.501,241.905 153.660 C 241.765 153.706,241.165 153.590,240.571 153.403 L 239.492 153.062 239.492 150.690 C 239.492 147.829,239.928 147.431,240.308 149.947 C 240.441 150.834,241.016 150.713,241.014 149.799 C 241.006 146.757,239.886 138.956,239.288 137.778 C 238.805 136.825,238.730 135.766,239.059 134.546 C 239.294 133.677,238.944 128.263,238.567 126.921 C 238.370 126.220,237.714 126.383,237.714 127.132 C 237.714 128.037,237.186 127.793,236.808 126.715 C 236.599 126.119,236.455 125.962,236.354 126.222 C 236.272 126.432,236.091 126.917,235.950 127.302 C 235.642 128.145,235.181 128.219,235.159 127.429 L 235.142 126.857 234.907 127.443 C 234.390 128.732,234.294 135.067,234.784 135.608 C 235.205 136.074,235.207 136.131,234.805 136.533 C 234.422 136.916,234.417 137.002,234.761 137.346 C 235.105 137.690,235.100 137.815,234.716 138.516 C 234.333 139.214,234.296 140.110,234.376 146.584 C 234.477 154.803,234.410 155.150,232.715 155.167 C 232.270 155.171,231.617 155.284,231.264 155.419 C 229.604 156.050,229.314 155.485,228.426 149.878 C 227.643 144.937,226.922 141.451,226.531 140.712 C 226.098 139.893,225.978 144.147,226.281 149.607 L 226.601 155.366 226.037 156.129 C 225.676 156.617,225.313 156.850,225.029 156.775 C 224.785 156.712,224.148 156.842,223.613 157.066 C 222.950 157.343,222.558 157.389,222.380 157.212 C 222.238 157.069,221.915 156.952,221.663 156.952 C 221.412 156.952,221.206 156.866,221.206 156.760 C 221.206 154.501,218.570 142.589,217.999 142.270 C 217.668 142.085,217.648 141.941,217.888 141.492 C 218.219 140.873,218.060 140.444,217.500 140.444 C 217.208 140.444,217.183 140.336,217.388 139.953 C 217.866 139.060,217.463 135.745,216.252 130.603 C 216.056 129.772,215.619 129.903,215.619 130.794 C 215.619 131.946,215.203 131.708,214.730 130.286 C 214.299 128.988,214.008 128.723,213.750 129.394 C 213.579 129.840,214.020 133.912,214.347 134.916 C 214.526 135.465,214.479 135.678,214.121 135.932 C 213.454 136.406,213.079 137.246,213.079 138.269 C 213.079 138.767,212.965 139.175,212.825 139.175 C 212.686 139.175,212.571 138.884,212.571 138.528 C 212.571 137.805,211.546 136.635,210.912 136.635 C 210.595 136.635,210.534 136.474,210.650 135.937 C 211.146 133.637,210.102 130.594,208.918 130.891 C 207.756 131.182,207.698 131.669,208.241 136.579 C 208.797 141.606,208.897 142.030,209.492 141.909 C 209.914 141.824,209.947 141.404,209.633 140.118 C 209.511 139.614,209.591 139.267,209.913 138.912 C 210.482 138.283,211.040 138.260,210.880 138.872 C 210.798 139.185,210.966 139.425,211.405 139.625 C 212.152 139.966,212.479 140.937,212.091 141.663 C 211.866 142.084,211.912 142.190,212.373 142.310 C 212.903 142.449,212.907 142.473,212.474 142.952 C 212.055 143.415,212.052 143.493,212.438 144.081 C 212.875 144.748,212.528 146.223,211.835 146.651 C 211.677 146.748,211.622 147.098,211.709 147.444 C 211.843 147.979,211.776 148.063,211.219 148.063 C 210.434 148.063,210.177 147.424,210.410 146.047 C 210.596 144.946,210.328 144.616,209.650 145.112 C 209.216 145.429,209.644 151.724,210.433 156.648 C 210.634 157.902,212.207 158.107,212.822 156.959 C 213.111 156.419,212.770 152.291,212.290 150.510 C 212.049 149.616,212.084 149.467,212.679 148.845 C 213.211 148.291,213.333 147.915,213.333 146.843 C 213.333 145.440,213.732 145.057,213.981 146.222 C 214.279 147.617,214.592 148.074,215.353 148.226 C 216.075 148.370,216.103 148.425,215.973 149.427 C 215.814 150.654,216.491 156.717,216.865 157.416 C 217.223 158.085,216.013 159.238,214.951 159.238 C 214.529 159.238,213.383 159.511,212.404 159.844 C 211.425 160.177,210.119 160.527,209.502 160.623 C 208.886 160.719,207.981 160.928,207.492 161.087 C 207.003 161.247,206.080 161.344,205.440 161.304 C 204.509 161.244,204.129 161.354,203.535 161.853 C 202.181 162.992,200.500 163.396,199.333 162.864 C 198.146 162.322,198.257 162.763,197.492 155.588 C 196.794 149.045,196.714 148.825,195.201 149.325 C 193.922 149.747,193.881 150.141,194.522 155.881 C 195.055 160.654,195.530 162.877,195.548 160.677 C 195.560 159.180,196.103 159.656,196.592 161.591 L 197.017 163.275 196.087 163.891 C 195.576 164.229,194.553 164.635,193.813 164.794 C 193.074 164.953,192.239 165.205,191.958 165.356 C 191.662 165.514,190.952 165.561,190.264 165.466 L 189.079 165.304 189.206 163.370 C 189.326 161.542,189.968 160.277,189.968 161.869 C 189.968 162.448,190.363 162.991,190.607 162.747 C 191.128 162.226,189.399 151.872,188.683 151.224 C 188.302 150.879,188.273 150.717,188.522 150.315 C 188.758 149.935,188.757 149.783,188.519 149.635 C 188.283 149.488,188.303 149.181,188.606 148.309 C 188.970 147.263,188.958 146.760,188.450 141.841 C 187.876 136.277,187.486 134.178,187.449 136.444 C 187.416 138.428,186.813 137.987,186.297 135.602 C 186.054 134.475,185.895 133.526,185.943 133.493 C 188.273 131.919,196.519 131.051,198.265 132.195 C 200.359 133.567,201.417 143.832,199.686 145.986 L 198.906 146.956 199.698 147.193 C 201.012 147.585,201.300 148.459,201.883 153.833 C 202.174 156.518,202.413 158.889,202.413 159.103 C 202.413 159.317,202.527 159.492,202.667 159.492 C 202.806 159.492,202.921 159.083,202.921 158.582 C 202.921 157.335,203.489 157.572,203.782 158.941 C 204.110 160.475,204.444 160.240,204.444 158.476 C 204.444 157.638,204.547 156.952,204.671 156.952 C 204.946 156.952,205.206 157.579,205.206 158.243 C 205.206 158.511,205.378 158.730,205.587 158.730 C 206.082 158.730,206.075 158.421,205.449 152.830 C 205.051 149.270,204.795 147.912,204.349 146.992 C 203.994 146.259,203.859 145.703,204.003 145.559 C 204.146 145.415,204.138 145.138,203.981 144.844 C 203.805 144.517,203.813 144.031,204.004 143.315 C 204.289 142.247,203.585 133.490,203.159 132.801 C 202.826 132.262,202.355 132.854,202.508 133.618 C 202.737 134.762,201.979 134.551,201.664 133.383 C 201.009 130.951,201.007 130.961,202.207 130.497 C 202.809 130.264,203.866 129.997,204.556 129.903 C 205.247 129.809,206.369 129.512,207.051 129.244 C 207.740 128.972,208.874 128.761,209.606 128.769 C 213.067 128.806,214.523 128.704,215.230 128.375 C 216.174 127.937,219.089 127.431,220.889 127.393 L 222.222 127.365 222.222 128.698 C 222.222 130.071,221.672 130.615,221.387 129.524 C 221.249 128.998,220.698 128.809,220.698 129.287 C 220.698 130.633,222.430 138.667,222.720 138.667 C 223.166 138.667,223.259 137.911,223.813 129.778 C 223.880 128.782,223.439 128.419,223.231 129.300 C 222.948 130.497,222.476 130.114,222.476 128.687 C 222.476 127.091,222.725 126.906,225.270 126.609 C 226.038 126.519,227.314 126.360,228.105 126.256 L 229.543 126.067 229.692 126.811 C 230.023 128.464,229.402 129.769,229.006 128.254 C 228.933 127.975,228.746 127.746,228.590 127.746 C 228.425 127.746,228.366 127.983,228.448 128.317 C 229.089 130.940,230.148 136.694,230.129 137.460 C 230.117 137.984,230.219 138.413,230.355 138.413 C 230.492 138.413,230.615 138.841,230.628 139.365 C 230.642 139.889,230.745 140.603,230.857 140.952 C 231.143 141.844,231.154 139.746,230.873 138.032 C 230.758 137.333,230.750 136.533,230.855 136.254 C 231.195 135.347,231.447 127.492,231.136 127.492 C 230.983 127.492,230.857 127.778,230.857 128.127 C 230.857 128.476,230.758 128.762,230.636 128.762 C 230.367 128.762,230.067 126.418,230.306 126.179 C 230.602 125.884,234.758 125.269,235.609 125.394 C 236.057 125.461,236.963 125.331,237.622 125.107 C 238.281 124.882,239.287 124.698,239.856 124.698 C 240.426 124.698,241.291 124.572,241.779 124.418 C 242.693 124.129,247.482 123.698,248.084 123.851 C 248.270 123.898,248.613 123.937,248.846 123.938 M256.606 124.809 C 256.260 125.710,257.291 133.194,257.824 133.651 C 258.442 134.181,259.284 134.223,259.924 133.755 C 260.432 133.384,259.830 125.506,259.238 124.762 C 258.879 124.311,256.783 124.348,256.606 124.809 M181.404 134.111 C 184.031 134.840,184.709 136.247,185.377 142.349 C 186.129 149.218,186.116 149.385,184.683 150.921 C 184.127 151.518,184.098 151.619,184.486 151.619 C 184.735 151.619,185.308 151.990,185.759 152.444 L 186.577 153.270 187.112 158.275 C 187.930 165.927,187.217 167.083,180.948 168.267 C 179.693 168.504,178.204 168.832,177.639 168.996 C 177.074 169.159,176.131 169.247,175.544 169.191 L 174.476 169.090 174.476 167.338 C 174.476 165.411,175.000 164.871,175.375 166.413 L 175.576 167.238 175.682 166.499 C 175.951 164.622,174.712 156.194,174.091 155.679 C 173.869 155.495,173.800 155.094,173.893 154.524 C 173.983 153.967,173.932 153.651,173.752 153.651 C 173.568 153.651,173.611 153.352,173.874 152.800 C 174.250 152.011,174.240 151.566,173.736 146.768 C 173.088 140.606,173.054 140.421,172.598 140.596 C 172.339 140.696,172.137 140.215,171.817 138.746 C 171.580 137.655,171.330 136.520,171.261 136.225 C 171.171 135.836,171.281 135.650,171.663 135.551 C 171.952 135.475,172.285 135.154,172.402 134.838 C 172.542 134.459,172.678 134.364,172.799 134.560 C 173.058 134.980,174.808 134.894,176.889 134.358 C 179.006 133.812,180.112 133.752,181.404 134.111 M193.076 134.010 C 192.276 134.333,192.256 135.074,192.890 140.861 C 193.603 147.368,193.675 147.564,195.142 146.951 C 196.552 146.362,196.556 146.261,195.513 137.095 C 195.167 134.052,194.638 133.381,193.076 134.010 M163.354 137.143 C 163.666 137.143,163.723 137.366,163.628 138.222 C 163.464 139.712,164.267 146.729,164.693 147.534 C 165.012 148.135,164.986 148.249,164.384 148.882 C 163.822 149.474,163.730 149.795,163.742 151.104 C 163.753 152.251,163.668 152.635,163.402 152.635 C 163.192 152.635,163.048 152.373,163.048 151.992 C 163.048 150.841,162.355 149.585,161.571 149.312 C 160.874 149.069,160.844 148.997,160.957 147.824 C 161.098 146.359,160.606 141.631,160.208 140.622 C 159.883 139.798,158.615 139.721,158.130 140.495 C 157.577 141.378,159.160 154.895,159.914 155.728 C 160.303 156.157,160.303 156.224,159.912 156.655 C 159.362 157.263,159.382 157.608,159.990 158.035 C 160.434 158.345,160.457 158.488,160.198 159.331 C 159.929 160.207,160.486 168.195,160.923 169.715 C 161.219 170.746,163.006 170.787,163.396 169.771 C 163.585 169.280,163.098 164.880,162.795 164.332 C 162.657 164.083,162.829 163.743,163.327 163.277 C 163.953 162.693,164.063 162.396,164.063 161.295 C 164.063 160.583,164.178 160.000,164.317 160.000 C 164.457 160.000,164.572 160.143,164.573 160.317 C 164.578 161.408,165.139 162.503,165.842 162.794 C 166.439 163.041,166.585 163.246,166.537 163.776 C 166.505 164.143,166.574 165.486,166.692 166.759 C 167.065 170.801,165.164 172.444,160.115 172.444 C 156.906 172.444,156.627 172.009,155.933 165.926 C 155.576 162.799,155.263 161.086,154.921 160.394 C 154.483 159.506,154.469 159.343,154.800 158.977 C 155.303 158.422,155.272 158.038,154.700 157.732 C 154.281 157.508,154.257 157.357,154.496 156.461 C 154.706 155.673,154.641 154.232,154.205 150.040 C 153.043 138.863,153.945 136.797,159.982 136.822 C 160.760 136.825,161.568 136.735,161.778 136.622 C 162.011 136.496,162.314 136.558,162.560 136.780 C 162.780 136.980,163.138 137.143,163.354 137.143 M178.079 136.809 C 177.338 137.105,177.332 138.148,178.034 144.569 C 178.824 151.792,178.780 151.619,179.825 151.619 C 181.745 151.619,181.793 151.272,180.952 143.594 C 180.603 140.406,180.317 137.715,180.317 137.615 C 180.317 136.922,178.990 136.444,178.079 136.809 M147.175 138.894 C 149.772 140.097,150.204 141.233,151.123 149.265 C 151.574 153.215,152.016 156.044,152.257 156.526 C 152.581 157.176,152.596 157.449,152.343 158.060 C 152.070 158.718,152.096 158.853,152.566 159.233 C 152.933 159.531,153.027 159.774,152.870 160.022 C 152.525 160.566,152.587 163.025,153.048 167.158 C 153.544 171.611,153.337 172.369,151.342 173.394 C 149.751 174.212,143.406 174.759,140.635 174.318 L 139.683 174.167 139.683 172.671 C 139.683 171.022,140.252 170.530,140.533 171.937 C 140.689 172.716,141.460 173.032,141.460 172.317 C 141.460 170.060,140.355 162.752,139.861 161.747 C 139.453 160.916,139.357 160.460,139.531 160.184 C 139.701 159.914,139.656 159.612,139.382 159.200 C 139.026 158.663,139.026 158.527,139.385 157.774 C 139.752 157.003,139.728 156.421,139.065 150.026 C 138.387 143.496,137.905 140.970,137.905 143.949 C 137.905 144.687,137.789 145.270,137.643 145.270 C 137.329 145.270,137.301 145.188,136.743 142.603 C 136.341 140.742,136.286 140.636,136.084 141.333 C 135.801 142.310,136.553 150.212,137.020 151.176 C 137.330 151.815,137.311 151.901,136.807 152.166 C 135.991 152.595,135.881 152.869,135.877 154.476 C 135.875 155.279,135.771 155.937,135.646 155.937 C 135.369 155.937,135.111 155.308,135.111 154.633 C 135.111 153.797,134.384 152.666,133.579 152.250 C 132.926 151.912,132.856 151.783,133.089 151.347 C 133.401 150.763,132.753 144.306,132.297 143.453 C 131.780 142.488,130.176 142.906,130.082 144.030 C 129.841 146.906,131.511 158.222,132.176 158.222 C 132.920 158.222,133.046 157.896,132.668 156.951 C 132.184 155.740,132.287 154.574,132.889 154.460 C 133.184 154.404,133.333 154.535,133.333 154.850 C 133.333 155.112,133.790 155.772,134.349 156.317 C 135.457 157.399,135.576 157.822,134.963 158.500 C 134.591 158.910,134.613 158.979,135.240 159.390 L 135.920 159.835 135.369 160.251 C 134.874 160.625,134.858 160.701,135.218 160.999 C 135.811 161.491,135.706 162.370,134.971 163.060 C 134.507 163.496,134.364 163.834,134.468 164.247 C 134.656 164.999,134.039 165.023,133.308 164.293 C 132.777 163.761,132.775 163.692,133.241 161.877 C 133.410 161.218,132.643 160.835,132.148 161.331 C 131.705 161.773,132.784 172.219,133.290 172.388 C 133.518 172.464,133.562 172.305,133.444 171.834 C 133.322 171.348,133.376 171.175,133.651 171.175 C 133.953 171.175,135.042 173.970,134.788 174.092 C 133.372 174.770,129.482 174.747,127.810 174.051 C 126.998 173.713,126.984 173.679,126.984 172.060 C 126.984 170.265,127.633 169.591,127.793 171.219 C 127.837 171.662,128.001 172.066,128.157 172.117 C 128.327 172.173,128.404 171.977,128.350 171.629 C 128.299 171.309,128.030 168.945,127.751 166.375 C 127.355 162.730,127.127 161.504,126.713 160.803 L 126.183 159.905 126.734 159.489 L 127.285 159.073 126.653 158.659 C 126.050 158.264,126.036 158.199,126.352 157.281 C 126.638 156.450,126.595 155.475,126.036 150.222 C 125.436 144.591,124.952 142.128,124.952 144.711 C 124.952 146.538,124.317 146.043,123.958 143.937 C 123.785 142.924,123.595 141.917,123.534 141.699 C 123.463 141.439,123.732 141.156,124.316 140.877 C 124.805 140.644,125.206 140.365,125.206 140.258 C 125.206 140.151,126.121 140.038,127.238 140.008 C 128.356 139.977,129.756 139.936,130.349 139.917 C 130.943 139.898,132.008 139.964,132.716 140.064 C 133.743 140.210,134.088 140.162,134.421 139.828 C 134.809 139.440,134.876 139.448,135.356 139.927 C 136.063 140.635,136.541 140.578,137.441 139.677 C 138.123 138.995,138.300 138.936,139.040 139.140 C 139.641 139.306,140.393 139.242,141.746 138.910 C 144.185 138.311,145.905 138.306,147.175 138.894 M222.520 139.536 C 222.566 139.905,222.717 140.203,222.857 140.198 C 223.237 140.187,223.164 139.107,222.774 138.978 C 222.539 138.899,222.462 139.067,222.520 139.536 M121.439 140.619 C 121.625 140.768,122.027 140.967,122.331 141.060 C 122.791 141.200,122.863 141.367,122.753 142.043 C 122.594 143.025,123.317 149.515,123.697 150.514 C 123.965 151.218,123.703 151.654,122.841 151.942 C 122.697 151.990,122.528 152.737,122.465 153.602 C 122.333 155.436,122.039 155.647,121.822 154.064 C 121.620 152.596,121.210 151.741,120.532 151.378 C 120.035 151.112,119.988 150.918,120.076 149.509 C 120.366 144.881,118.848 141.846,116.886 143.131 C 115.352 144.137,118.218 152.770,121.407 156.747 C 121.820 157.263,122.159 157.969,122.159 158.317 C 122.159 158.727,122.338 159.007,122.667 159.111 C 123.044 159.231,123.175 159.495,123.175 160.143 C 123.175 160.623,123.672 162.123,124.284 163.490 C 128.117 172.047,126.279 175.004,118.222 173.246 C 115.681 172.692,114.528 172.028,114.805 171.277 C 115.031 170.668,114.430 164.730,114.039 163.702 C 113.698 162.805,113.700 162.794,114.235 162.794 C 114.968 162.794,115.302 162.262,115.302 161.092 C 115.302 159.623,115.689 159.711,116.062 161.265 C 116.269 162.126,116.621 162.756,117.167 163.238 C 117.926 163.909,117.972 164.052,118.031 165.973 C 118.176 170.633,119.757 173.032,121.522 171.267 C 122.591 170.198,119.578 162.125,117.143 159.537 C 116.689 159.054,116.317 158.392,116.317 158.066 C 116.317 157.724,116.066 157.307,115.724 157.083 C 115.315 156.815,115.120 156.432,115.098 155.852 C 115.081 155.389,114.738 154.276,114.336 153.378 C 111.306 146.610,111.145 142.461,113.857 141.030 C 115.111 140.368,120.745 140.062,121.439 140.619 M222.889 141.778 C 223.116 143.257,223.238 143.294,223.238 141.884 C 223.238 141.232,223.122 140.698,222.981 140.698 C 222.822 140.698,222.787 141.110,222.889 141.778 M143.492 141.968 C 142.839 142.622,142.845 143.027,143.626 150.182 C 144.294 156.309,144.480 157.236,145.204 158.036 C 145.616 158.491,145.616 158.531,145.201 158.764 C 144.649 159.072,144.631 159.901,145.169 160.203 C 145.516 160.397,145.527 160.510,145.242 160.966 C 144.963 161.412,144.985 162.289,145.376 166.253 C 146.001 172.600,145.905 172.317,147.447 172.317 L 148.698 172.317 148.780 171.315 C 148.947 169.272,148.064 162.736,147.447 161.453 C 147.127 160.786,146.963 160.179,147.083 160.105 C 147.414 159.901,147.345 158.787,146.994 158.670 C 146.754 158.590,146.758 158.327,147.010 157.485 C 147.340 156.384,146.390 145.402,145.751 142.925 C 145.384 141.503,144.382 141.079,143.492 141.968 M180.698 153.848 C 179.136 154.183,179.097 154.501,179.815 161.038 C 180.412 166.474,180.760 167.010,182.849 165.719 C 183.280 165.453,183.051 161.718,182.205 155.239 C 182.056 154.097,181.582 153.659,180.698 153.848 M279.229 160.154 C 279.681 160.606,279.361 161.270,278.691 161.270 C 278.185 161.270,277.979 160.573,278.352 160.124 C 278.739 159.657,278.732 159.657,279.229 160.154 M254.478 162.222 C 254.478 163.025,254.553 164.797,254.643 166.159 C 254.803 168.574,254.793 168.635,254.261 168.635 C 253.819 168.635,253.710 168.477,253.690 167.810 C 253.677 167.356,253.591 165.584,253.500 163.873 C 253.334 160.766,253.334 160.761,253.905 160.762 C 254.431 160.762,254.476 160.878,254.478 162.222 M246.603 161.722 C 246.603 161.830,245.879 162.637,244.994 163.514 L 243.386 165.108 245.248 166.915 C 247.283 168.887,247.424 169.143,246.481 169.143 C 246.052 169.143,245.273 168.598,244.042 167.437 L 242.234 165.731 242.323 167.500 C 242.406 169.137,242.373 169.276,241.881 169.346 C 241.341 169.423,241.016 166.989,241.016 162.881 C 241.016 161.347,242.021 161.200,242.050 162.730 C 242.086 164.686,242.282 164.720,243.933 163.051 C 245.282 161.688,246.603 161.030,246.603 161.722 M236.709 162.425 C 237.246 163.072,236.363 163.837,235.768 163.242 C 235.353 162.827,235.630 162.032,236.190 162.032 C 236.296 162.032,236.529 162.209,236.709 162.425 M230.341 162.736 C 230.890 163.180,230.891 163.192,230.406 163.631 C 229.968 164.028,229.879 164.034,229.593 163.689 C 229.157 163.164,228.495 163.202,227.774 163.794 C 226.961 164.461,227.347 165.061,228.979 165.669 C 231.363 166.558,231.913 168.169,230.297 169.529 C 228.919 170.688,225.385 169.935,226.583 168.737 C 226.955 168.365,227.044 168.367,227.651 168.765 C 228.452 169.289,229.453 169.106,229.852 168.362 C 230.228 167.657,229.860 167.252,228.386 166.750 C 226.774 166.200,226.286 165.696,226.286 164.581 C 226.286 162.636,228.804 161.491,230.341 162.736 M276.416 162.857 C 277.315 163.667,277.703 167.365,276.888 167.365 C 276.362 167.365,276.072 166.416,276.066 164.666 C 276.063 163.723,275.528 163.196,274.806 163.425 C 273.975 163.688,273.698 164.498,273.871 166.155 C 274.022 167.601,274.007 167.651,273.458 167.573 C 272.735 167.470,272.311 162.851,273.001 162.588 C 273.202 162.511,273.409 162.575,273.460 162.729 C 273.526 162.926,273.797 162.905,274.364 162.658 C 275.470 162.177,275.684 162.198,276.416 162.857 M279.456 163.238 C 279.820 165.437,279.658 167.365,279.111 167.365 C 278.691 167.365,278.603 167.196,278.603 166.386 C 278.603 165.848,278.530 164.705,278.440 163.847 C 278.240 161.929,279.150 161.384,279.456 163.238 M213.333 164.444 C 213.333 165.958,213.572 166.483,213.968 165.841 C 214.637 164.760,217.436 166.061,217.776 167.611 C 218.220 169.631,215.374 171.793,214.035 170.454 C 213.854 170.273,213.654 170.310,213.391 170.572 C 212.748 171.216,212.616 170.680,212.428 166.667 C 212.248 162.822,212.250 162.794,212.790 162.794 C 213.289 162.794,213.333 162.927,213.333 164.444 M271.077 163.365 C 271.669 164.308,271.875 167.585,271.355 167.785 C 271.123 167.874,270.844 167.804,270.736 167.629 C 270.597 167.403,270.489 167.393,270.366 167.592 C 270.128 167.977,268.059 167.948,267.745 167.556 C 266.761 166.327,267.576 164.894,269.397 164.649 C 270.536 164.497,270.749 164.241,270.059 163.855 C 269.621 163.610,268.769 163.730,268.288 164.103 C 268.114 164.239,267.872 164.165,267.662 163.912 C 267.156 163.302,267.992 162.794,269.503 162.794 C 270.488 162.794,270.787 162.902,271.077 163.365 M264.838 163.352 C 265.075 163.589,265.143 163.589,265.143 163.352 C 265.143 163.185,265.360 163.048,265.626 163.048 C 266.328 163.048,266.689 167.999,266.080 169.276 C 265.427 170.645,263.083 171.064,261.705 170.056 C 260.873 169.448,261.655 168.780,262.616 169.277 C 263.939 169.960,264.960 169.577,265.287 168.274 C 265.453 167.616,265.427 167.585,264.940 167.846 C 262.250 169.285,259.548 165.651,261.861 163.705 C 262.710 162.991,264.289 162.804,264.838 163.352 M259.575 164.063 C 260.248 165.011,260.388 168.381,259.754 168.381 C 259.505 168.381,259.302 168.264,259.302 168.121 C 259.302 167.978,259.016 168.048,258.668 168.277 C 257.876 168.795,256.374 168.571,256.003 167.879 C 255.331 166.624,256.175 165.533,258.048 165.233 C 258.936 165.091,259.050 165.007,258.788 164.691 C 258.420 164.248,257.691 164.210,256.970 164.596 C 256.566 164.812,256.363 164.789,256.067 164.493 C 255.727 164.154,255.766 164.067,256.414 163.710 C 257.498 163.114,259.021 163.284,259.575 164.063 M251.732 164.492 C 253.416 166.105,252.265 168.889,249.914 168.889 C 247.874 168.889,246.738 167.361,247.365 165.461 C 247.949 163.690,250.341 163.159,251.732 164.492 M262.491 164.628 C 261.721 165.727,262.348 167.111,263.615 167.111 C 264.537 167.111,265.143 166.516,265.143 165.609 C 265.143 164.188,263.281 163.500,262.491 164.628 M234.921 165.079 C 234.921 165.413,234.751 165.587,234.427 165.587 C 233.544 165.587,233.113 166.562,233.293 168.153 C 233.496 169.950,232.572 170.654,232.285 168.921 C 231.877 166.452,232.080 164.757,232.768 164.889 C 233.121 164.956,233.470 164.912,233.545 164.791 C 233.833 164.326,234.921 164.554,234.921 165.079 M236.794 165.365 C 237.178 167.286,236.985 169.651,236.444 169.651 C 236.008 169.651,235.936 169.481,235.934 168.444 C 235.933 167.781,235.860 166.638,235.772 165.905 C 235.579 164.295,236.484 163.817,236.794 165.365 M248.780 165.224 C 247.837 166.168,248.547 167.873,249.884 167.873 C 251.242 167.873,251.954 166.142,250.964 165.246 C 250.377 164.715,249.300 164.704,248.780 165.224 M219.837 166.977 C 220.742 169.002,220.727 169.002,221.305 166.984 C 221.723 165.523,221.850 165.333,222.408 165.333 C 222.805 165.333,222.995 165.451,222.922 165.651 C 222.857 165.825,222.381 167.248,221.862 168.812 C 220.766 172.118,220.221 172.952,219.156 172.952 C 218.582 172.952,218.413 172.837,218.413 172.444 C 218.413 172.076,218.582 171.937,219.028 171.937 C 220.363 171.937,220.376 170.519,219.067 167.912 C 217.951 165.689,217.925 165.417,218.821 165.353 C 218.976 165.342,219.433 166.073,219.837 166.977 M268.762 165.755 C 268.303 165.941,268.372 166.775,268.861 166.963 C 269.373 167.159,270.476 166.476,270.476 165.962 C 270.476 165.592,269.468 165.471,268.762 165.755 M257.524 166.280 C 256.602 166.631,256.702 167.619,257.660 167.619 C 258.320 167.619,259.048 167.010,259.048 166.458 C 259.048 166.092,258.259 166.000,257.524 166.280 M213.989 167.089 C 212.974 168.210,214.351 170.324,215.651 169.639 C 216.425 169.230,216.626 168.916,216.631 168.103 C 216.639 166.770,214.886 166.097,213.989 167.089 M266.412 176.444 C 266.407 185.056,260.825 209.090,255.191 224.762 C 248.292 243.951,245.231 256.185,244.546 267.304 C 244.038 275.567,244.485 293.222,245.490 304.508 C 246.806 319.302,246.079 329.503,243.518 332.169 C 237.904 338.011,206.896 340.706,174.857 338.136 C 156.602 336.671,148.740 334.196,147.193 329.425 C 146.023 325.816,145.756 314.471,146.612 304.762 C 148.779 280.190,148.245 263.258,144.887 250.045 C 142.282 239.799,141.471 237.195,136.262 222.349 C 132.354 211.210,127.005 190.625,127.809 189.820 C 127.888 189.742,130.906 189.516,134.516 189.318 C 156.267 188.128,172.771 186.156,188.825 182.829 C 200.106 180.491,202.285 180.084,207.629 179.315 C 222.245 177.212,238.200 176.186,258.349 176.053 C 265.880 176.004,266.413 176.029,266.412 176.444 " stroke="none" fill="#059cdb" fill-rule="evenodd"></path><path id="path3" d="M189.278 41.838 C 189.945 41.890,190.974 41.890,191.563 41.836 C 192.153 41.783,191.606 41.740,190.349 41.741 C 189.092 41.742,188.610 41.785,189.278 41.838 M178.857 42.080 C 179.102 42.144,179.502 42.144,179.746 42.080 C 179.990 42.016,179.790 41.964,179.302 41.964 C 178.813 41.964,178.613 42.016,178.857 42.080 M207.683 42.091 C 208.276 42.144,209.248 42.144,209.841 42.091 C 210.435 42.037,209.949 41.994,208.762 41.994 C 207.575 41.994,207.089 42.037,207.683 42.091 M176.127 55.008 C 177.228 55.184,182.087 55.241,181.661 55.072 C 181.411 54.974,179.949 54.900,178.413 54.910 C 176.876 54.919,175.848 54.963,176.127 55.008 M173.714 55.583 C 172.225 56.166,170.159 57.382,170.159 57.675 C 170.159 57.801,169.959 57.914,169.714 57.925 C 169.387 57.940,169.364 57.982,169.629 58.087 C 169.826 58.165,170.112 58.065,170.264 57.866 C 170.698 57.294,172.391 56.338,174.076 55.711 C 174.925 55.396,175.448 55.137,175.238 55.136 C 175.029 55.135,174.343 55.336,173.714 55.583 M184.512 56.364 C 185.348 56.774,186.717 57.711,187.556 58.447 C 188.394 59.183,188.794 59.452,188.444 59.046 C 187.230 57.634,184.278 55.645,183.369 55.627 C 183.161 55.622,183.676 55.954,184.512 56.364 M194.667 56.632 C 194.351 56.767,194.686 56.795,195.556 56.706 C 196.324 56.628,197.000 56.523,197.058 56.472 C 197.277 56.284,195.153 56.426,194.667 56.632 M199.175 56.556 C 199.419 56.620,199.819 56.620,200.063 56.556 C 200.308 56.492,200.108 56.440,199.619 56.440 C 199.130 56.440,198.930 56.492,199.175 56.556 M200.889 56.816 C 201.098 56.893,201.813 57.159,202.476 57.406 C 203.139 57.654,203.625 57.763,203.555 57.650 C 203.412 57.418,201.198 56.624,200.780 56.655 C 200.630 56.666,200.679 56.738,200.889 56.816 M192.845 57.283 C 192.402 57.478,191.973 57.744,191.891 57.875 C 191.766 58.078,193.704 57.264,194.011 56.985 C 194.228 56.788,193.624 56.942,192.845 57.283 M204.601 58.454 C 205.004 58.756,205.855 59.471,206.492 60.041 C 207.130 60.612,206.917 60.365,206.019 59.492 C 205.121 58.619,204.270 57.905,204.127 57.905 C 203.985 57.905,204.198 58.152,204.601 58.454 M190.095 59.075 L 189.079 59.985 190.222 59.150 C 190.851 58.690,191.413 58.280,191.471 58.237 C 191.529 58.194,191.472 58.160,191.344 58.163 C 191.216 58.165,190.654 58.575,190.095 59.075 M167.857 59.873 C 166.988 60.853,166.352 61.982,166.943 61.493 C 167.175 61.301,167.365 61.022,167.365 60.872 C 167.365 60.722,167.672 60.279,168.048 59.887 C 168.423 59.495,168.673 59.175,168.603 59.175 C 168.533 59.175,168.197 59.489,167.857 59.873 M211.873 61.635 C 212.117 61.699,212.517 61.699,212.762 61.635 C 213.006 61.572,212.806 61.519,212.317 61.519 C 211.829 61.519,211.629 61.572,211.873 61.635 M217.926 61.806 C 217.984 61.856,218.375 61.973,218.794 62.067 C 219.350 62.192,219.453 62.168,219.175 61.980 C 218.832 61.748,217.671 61.586,217.926 61.806 M219.937 62.404 C 220.146 62.481,220.546 62.650,220.825 62.778 C 221.325 63.008,221.325 63.006,220.840 62.617 C 220.569 62.400,220.169 62.231,219.951 62.242 C 219.609 62.260,219.607 62.282,219.937 62.404 M122.731 63.365 C 122.734 63.924,122.786 64.122,122.846 63.807 C 122.907 63.491,122.905 63.034,122.841 62.791 C 122.778 62.548,122.728 62.806,122.731 63.365 M221.460 63.080 C 221.460 63.139,221.867 63.428,222.364 63.721 C 222.862 64.015,223.197 64.140,223.110 63.999 C 222.940 63.723,221.460 62.899,221.460 63.080 M269.270 64.889 C 269.273 65.448,269.325 65.646,269.386 65.330 C 269.447 65.014,269.444 64.557,269.381 64.314 C 269.317 64.072,269.268 64.330,269.270 64.889 M224.508 65.290 C 225.137 65.907,225.698 66.385,225.755 66.351 C 225.924 66.250,224.950 65.257,224.127 64.691 C 223.604 64.331,223.723 64.518,224.508 65.290 M226.052 66.845 C 226.041 67.082,226.190 67.368,226.383 67.479 C 226.577 67.591,227.147 68.425,227.650 69.333 C 228.154 70.241,228.567 70.895,228.569 70.785 C 228.574 70.408,227.283 68.045,226.817 67.579 C 226.560 67.321,226.287 66.954,226.211 66.762 C 226.110 66.510,226.066 66.533,226.052 66.845 M164.898 68.190 C 164.900 68.889,164.949 69.144,165.008 68.758 C 165.066 68.372,165.064 67.801,165.004 67.489 C 164.944 67.176,164.896 67.492,164.898 68.190 M165.097 70.370 C 165.107 70.848,165.214 71.467,165.335 71.746 C 165.477 72.073,165.503 71.801,165.409 70.984 C 165.234 69.474,165.072 69.155,165.097 70.370 M269.011 70.857 C 269.011 71.346,269.064 71.546,269.127 71.302 C 269.191 71.057,269.191 70.657,269.127 70.413 C 269.064 70.168,269.011 70.368,269.011 70.857 M165.734 72.838 C 165.816 73.159,165.737 73.616,165.559 73.853 C 165.255 74.258,165.265 74.258,165.708 73.852 C 166.105 73.489,166.134 73.323,165.884 72.836 L 165.585 72.254 165.734 72.838 M163.684 75.365 C 163.029 76.029,162.373 76.800,162.228 77.079 C 162.082 77.359,162.013 77.530,162.074 77.460 C 162.135 77.390,162.853 76.619,163.671 75.746 C 165.410 73.888,165.420 73.608,163.684 75.365 M123.234 75.175 C 123.234 75.663,123.286 75.863,123.350 75.619 C 123.414 75.375,123.414 74.975,123.350 74.730 C 123.286 74.486,123.234 74.686,123.234 75.175 M161.238 78.869 C 160.957 79.504,160.764 80.123,160.808 80.245 C 160.853 80.367,161.131 79.847,161.427 79.090 C 162.081 77.420,161.948 77.265,161.238 78.869 M229.206 78.984 C 229.109 79.562,229.082 80.087,229.147 80.153 C 229.212 80.218,229.342 79.795,229.435 79.213 C 229.528 78.631,229.555 78.105,229.494 78.044 C 229.433 77.984,229.304 78.407,229.206 78.984 M160.381 81.524 C 160.285 81.963,160.259 82.375,160.323 82.440 C 160.388 82.504,160.514 82.192,160.603 81.746 C 160.815 80.687,160.610 80.482,160.381 81.524 M227.659 83.619 C 227.429 84.073,226.948 84.844,226.590 85.333 C 226.100 86.001,226.067 86.110,226.455 85.772 C 226.977 85.319,228.467 82.794,228.213 82.794 C 228.138 82.794,227.889 83.165,227.659 83.619 M160.258 84.974 C 160.260 85.521,160.374 86.140,160.510 86.349 C 160.680 86.609,160.707 86.327,160.597 85.460 C 160.397 83.876,160.253 83.670,160.258 84.974 M123.747 86.984 C 123.749 87.543,123.801 87.742,123.862 87.426 C 123.923 87.110,123.921 86.653,123.857 86.410 C 123.793 86.167,123.744 86.425,123.747 86.984 M268.255 88.254 C 268.257 88.813,268.309 89.011,268.370 88.695 C 268.431 88.380,268.429 87.922,268.365 87.680 C 268.301 87.437,268.252 87.695,268.255 88.254 M221.079 89.926 C 220.381 90.327,219.900 90.657,220.010 90.661 C 220.337 90.670,222.174 89.680,222.347 89.400 C 222.547 89.077,222.592 89.058,221.079 89.926 M162.904 91.238 C 163.295 91.762,163.663 92.190,163.722 92.190 C 163.946 92.190,163.321 91.272,162.770 90.791 C 162.297 90.377,162.321 90.458,162.904 91.238 M218.032 91.057 C 217.026 91.405,217.025 91.407,217.905 91.262 C 218.394 91.182,218.965 91.019,219.175 90.899 C 219.734 90.581,219.194 90.655,218.032 91.057 M210.152 93.143 C 209.330 94.086,208.922 94.629,209.246 94.349 C 209.894 93.790,211.919 91.429,211.751 91.429 C 211.693 91.429,210.973 92.200,210.152 93.143 M213.782 91.613 C 214.239 91.669,214.925 91.668,215.306 91.610 C 215.688 91.552,215.314 91.506,214.476 91.507 C 213.638 91.509,213.326 91.556,213.782 91.613 M164.493 92.726 C 164.799 93.060,165.427 93.551,165.890 93.817 C 166.947 94.426,166.805 94.271,165.206 93.072 C 164.458 92.511,164.165 92.369,164.493 92.726 M168.508 94.984 C 168.787 95.104,169.187 95.202,169.397 95.202 C 169.637 95.202,169.590 95.122,169.270 94.984 C 168.990 94.864,168.590 94.766,168.381 94.766 C 168.141 94.766,168.188 94.847,168.508 94.984 M171.105 95.421 C 171.556 95.477,172.356 95.478,172.883 95.423 C 173.410 95.368,173.041 95.323,172.063 95.321 C 171.086 95.320,170.655 95.365,171.105 95.421 M174.479 95.836 C 174.474 96.236,175.867 98.532,176.189 98.655 C 176.365 98.723,176.508 98.667,176.508 98.532 C 176.508 98.396,176.396 98.286,176.259 98.286 C 176.122 98.286,175.666 97.686,175.246 96.952 C 174.825 96.219,174.480 95.716,174.479 95.836 M196.957 96.494 C 196.864 96.787,196.396 97.539,195.918 98.166 C 194.833 99.587,194.763 99.982,195.834 98.638 C 196.741 97.500,197.426 96.262,197.248 96.084 C 197.181 96.017,197.050 96.201,196.957 96.494 M205.206 96.254 C 204.683 96.421,204.661 96.461,205.079 96.479 C 205.359 96.491,205.759 96.389,205.968 96.254 C 206.413 95.966,206.104 95.966,205.206 96.254 M201.844 96.942 C 202.160 97.002,202.617 97.000,202.860 96.936 C 203.103 96.873,202.844 96.823,202.286 96.826 C 201.727 96.829,201.528 96.881,201.844 96.942 M177.016 99.660 C 177.642 100.358,179.048 101.467,179.048 101.263 C 179.048 101.206,178.448 100.663,177.714 100.056 C 176.956 99.429,176.655 99.258,177.016 99.660 M180.190 101.978 C 181.361 102.702,182.507 103.071,184.127 103.245 C 184.912 103.329,184.714 103.242,183.492 102.967 C 182.514 102.748,181.214 102.290,180.603 101.951 C 179.160 101.149,178.881 101.168,180.190 101.978 M190.095 102.485 C 189.676 102.677,189.505 102.835,189.714 102.837 C 189.924 102.838,190.381 102.676,190.730 102.476 C 191.533 102.017,191.104 102.023,190.095 102.485 M187.556 103.111 C 186.871 103.285,186.858 103.305,187.429 103.310 C 187.778 103.312,188.349 103.223,188.698 103.111 C 189.552 102.838,188.630 102.838,187.556 103.111 M268.260 104.127 C 268.260 104.756,268.309 105.013,268.370 104.698 C 268.430 104.384,268.430 103.870,268.370 103.556 C 268.309 103.241,268.260 103.498,268.260 104.127 M123.755 105.016 C 123.757 105.714,123.806 105.970,123.865 105.584 C 123.923 105.198,123.922 104.626,123.861 104.314 C 123.801 104.002,123.753 104.317,123.755 105.016 M239.687 110.660 C 240.144 110.717,240.829 110.716,241.211 110.658 C 241.593 110.600,241.219 110.553,240.381 110.555 C 239.543 110.556,239.231 110.604,239.687 110.660 M253.655 110.660 C 254.112 110.717,254.798 110.716,255.179 110.658 C 255.561 110.600,255.187 110.553,254.349 110.555 C 253.511 110.556,253.199 110.604,253.655 110.660 M232.698 110.905 C 232.943 110.969,233.343 110.969,233.587 110.905 C 233.832 110.841,233.632 110.789,233.143 110.789 C 232.654 110.789,232.454 110.841,232.698 110.905 M123.532 119.873 C 123.532 122.178,123.570 123.121,123.618 121.968 C 123.665 120.816,123.665 118.930,123.618 117.778 C 123.570 116.625,123.532 117.568,123.532 119.873 M234.235 133.587 C 234.235 134.356,234.282 134.670,234.341 134.286 C 234.399 133.902,234.399 133.273,234.341 132.889 C 234.282 132.505,234.235 132.819,234.235 133.587 M231.175 133.460 C 231.178 134.019,231.230 134.218,231.291 133.902 C 231.351 133.586,231.349 133.129,231.286 132.886 C 231.222 132.643,231.172 132.902,231.175 133.460 M217.715 138.540 C 217.718 139.098,217.770 139.297,217.830 138.981 C 217.891 138.665,217.889 138.208,217.825 137.965 C 217.762 137.722,217.712 137.981,217.715 138.540 M144.447 138.592 C 144.763 138.653,145.220 138.651,145.463 138.587 C 145.706 138.524,145.448 138.474,144.889 138.477 C 144.330 138.480,144.131 138.532,144.447 138.592 M126.289 140.373 C 126.675 140.431,127.247 140.430,127.559 140.369 C 127.871 140.309,127.556 140.261,126.857 140.263 C 126.159 140.265,125.903 140.314,126.289 140.373 M276.128 141.079 C 276.130 141.638,276.182 141.837,276.243 141.521 C 276.304 141.205,276.302 140.748,276.238 140.505 C 276.174 140.262,276.125 140.521,276.128 141.079 M250.985 143.365 C 250.988 143.924,251.040 144.122,251.100 143.807 C 251.161 143.491,251.159 143.034,251.095 142.791 C 251.032 142.548,250.982 142.806,250.985 143.365 M129.842 144.381 C 129.845 144.940,129.897 145.138,129.957 144.822 C 130.018 144.507,130.016 144.049,129.952 143.807 C 129.889 143.564,129.839 143.822,129.842 144.381 M196.376 145.270 C 196.376 145.759,196.429 145.959,196.493 145.714 C 196.556 145.470,196.556 145.070,196.493 144.825 C 196.429 144.581,196.376 144.781,196.376 145.270 M161.085 147.048 C 161.085 147.676,161.135 147.933,161.195 147.619 C 161.256 147.305,161.256 146.790,161.195 146.476 C 161.135 146.162,161.085 146.419,161.085 147.048 M234.235 148.571 C 234.235 149.340,234.282 149.654,234.341 149.270 C 234.399 148.886,234.399 148.257,234.341 147.873 C 234.282 147.489,234.235 147.803,234.235 148.571 M248.191 148.952 C 248.194 149.511,248.246 149.710,248.307 149.394 C 248.367 149.078,248.365 148.621,248.301 148.378 C 248.238 148.135,248.188 148.394,248.191 148.952 M271.276 149.890 C 271.255 150.964,271.324 151.896,271.429 151.961 C 271.533 152.026,271.587 151.433,271.547 150.643 C 271.423 148.163,271.316 147.863,271.276 149.890 M273.717 152.815 C 274.033 152.875,274.490 152.873,274.733 152.809 C 274.976 152.746,274.717 152.696,274.159 152.699 C 273.600 152.702,273.401 152.754,273.717 152.815 M154.726 155.175 C 154.726 155.663,154.778 155.863,154.842 155.619 C 154.906 155.375,154.906 154.975,154.842 154.730 C 154.778 154.486,154.726 154.686,154.726 155.175 M133.099 154.945 C 133.088 155.168,133.337 155.568,133.651 155.834 C 134.217 156.313,134.219 156.313,133.811 155.810 C 133.585 155.530,133.337 155.130,133.260 154.921 C 133.141 154.597,133.116 154.601,133.099 154.945 M144.821 162.286 C 144.821 162.775,144.873 162.975,144.937 162.730 C 145.001 162.486,145.001 162.086,144.937 161.841 C 144.873 161.597,144.821 161.797,144.821 162.286 M228.381 162.461 C 228.625 162.525,229.025 162.525,229.270 162.461 C 229.514 162.397,229.314 162.345,228.825 162.345 C 228.337 162.345,228.137 162.397,228.381 162.461 M134.620 163.156 C 134.302 163.496,134.101 163.924,134.175 164.109 C 134.279 164.369,134.314 164.363,134.329 164.080 C 134.340 163.879,134.598 163.451,134.901 163.127 C 135.205 162.804,135.396 162.540,135.327 162.540 C 135.257 162.540,134.939 162.817,134.620 163.156 M243.165 163.873 L 241.905 165.206 243.238 163.946 C 244.477 162.775,244.688 162.540,244.498 162.540 C 244.458 162.540,243.858 163.140,243.165 163.873 M244.435 163.873 L 243.175 165.206 244.508 163.946 C 245.747 162.775,245.958 162.540,245.768 162.540 C 245.728 162.540,245.128 163.140,244.435 163.873 M212.619 162.951 C 212.855 163.021,213.106 163.272,213.176 163.508 C 213.269 163.819,213.290 163.798,213.252 163.431 C 213.222 163.135,212.992 162.905,212.695 162.875 C 212.329 162.837,212.308 162.858,212.619 162.951 M253.519 164.063 C 253.519 164.552,253.572 164.752,253.635 164.508 C 253.699 164.263,253.699 163.863,253.635 163.619 C 253.572 163.375,253.519 163.575,253.519 164.063 M212.376 165.079 C 212.376 165.568,212.429 165.768,212.493 165.524 C 212.556 165.279,212.556 164.879,212.493 164.635 C 212.429 164.390,212.376 164.590,212.376 165.079 M279.424 165.333 C 279.424 165.822,279.476 166.022,279.540 165.778 C 279.604 165.533,279.604 165.133,279.540 164.889 C 279.476 164.644,279.424 164.844,279.424 165.333 M242.052 166.032 C 242.065 166.327,242.117 166.363,242.206 166.140 C 242.306 165.890,242.512 165.955,243.011 166.394 L 243.683 166.984 243.067 166.286 C 242.358 165.481,242.023 165.398,242.052 166.032 M254.535 167.111 C 254.535 167.600,254.587 167.800,254.651 167.556 C 254.715 167.311,254.715 166.911,254.651 166.667 C 254.587 166.422,254.535 166.622,254.535 167.111 M245.831 167.683 C 246.453 168.346,246.996 168.889,247.037 168.889 C 247.228 168.889,247.026 168.661,245.905 167.608 L 244.698 166.476 245.831 167.683 M174.496 167.795 C 174.485 168.380,174.567 168.915,174.677 168.983 C 174.788 169.051,174.836 168.687,174.786 168.173 C 174.647 166.767,174.519 166.600,174.496 167.795 M266.223 167.746 C 266.226 168.305,266.278 168.503,266.338 168.188 C 266.399 167.872,266.397 167.414,266.333 167.172 C 266.270 166.929,266.220 167.187,266.223 167.746 M166.662 168.381 C 166.662 168.870,166.714 169.070,166.778 168.825 C 166.842 168.581,166.842 168.181,166.778 167.937 C 166.714 167.692,166.662 167.892,166.662 168.381 M228.127 170.080 C 228.371 170.144,228.771 170.144,229.016 170.080 C 229.260 170.016,229.060 169.964,228.571 169.964 C 228.083 169.964,227.883 170.016,228.127 170.080 M141.460 172.432 C 141.460 172.633,141.265 172.707,140.952 172.625 C 140.672 172.552,140.508 172.595,140.586 172.722 C 140.664 172.849,140.886 172.952,141.079 172.952 C 141.481 172.952,141.840 172.486,141.613 172.258 C 141.529 172.174,141.460 172.252,141.460 172.432 M139.768 173.458 C 139.796 173.887,139.973 174.107,140.317 174.142 C 140.683 174.179,140.705 174.157,140.397 174.065 C 140.161 173.995,139.913 173.687,139.847 173.381 C 139.746 172.915,139.733 172.928,139.768 173.458 M258.612 176.188 C 259.421 176.239,260.678 176.238,261.406 176.187 C 262.134 176.136,261.473 176.094,259.937 176.095 C 258.400 176.096,257.804 176.137,258.612 176.188 M147.916 276.952 C 147.916 279.746,147.953 280.924,147.999 279.569 C 148.044 278.215,148.044 275.929,147.999 274.490 C 147.954 273.051,147.916 274.159,147.916 276.952 M244.158 277.206 C 244.159 278.743,244.201 279.339,244.251 278.530 C 244.302 277.722,244.302 276.465,244.250 275.737 C 244.199 275.009,244.158 275.670,244.158 277.206 M244.376 288.762 C 244.376 289.251,244.429 289.451,244.493 289.206 C 244.556 288.962,244.556 288.562,244.493 288.317 C 244.429 288.073,244.376 288.273,244.376 288.762 M147.620 289.397 C 147.622 289.956,147.674 290.154,147.735 289.838 C 147.796 289.522,147.794 289.065,147.730 288.822 C 147.666 288.580,147.617 288.838,147.620 289.397 M245.905 313.778 C 245.908 314.337,245.960 314.535,246.021 314.219 C 246.082 313.903,246.079 313.446,246.016 313.203 C 245.952 312.961,245.902 313.219,245.905 313.778 M146.110 314.794 C 146.112 315.632,146.159 315.944,146.216 315.488 C 146.272 315.031,146.271 314.345,146.213 313.964 C 146.155 313.582,146.109 313.956,146.110 314.794 M146.101 320.762 C 146.101 321.390,146.150 321.648,146.211 321.333 C 146.272 321.019,146.272 320.505,146.211 320.190 C 146.150 319.876,146.101 320.133,146.101 320.762 M245.900 322.286 C 245.900 322.775,245.952 322.975,246.016 322.730 C 246.080 322.486,246.080 322.086,246.016 321.841 C 245.952 321.597,245.900 321.797,245.900 322.286 M184.190 338.715 C 184.435 338.779,184.835 338.779,185.079 338.715 C 185.324 338.651,185.124 338.599,184.635 338.599 C 184.146 338.599,183.946 338.651,184.190 338.715 M190.667 338.973 C 190.981 339.033,191.495 339.033,191.810 338.973 C 192.124 338.912,191.867 338.863,191.238 338.863 C 190.610 338.863,190.352 338.912,190.667 338.973 M200.960 338.981 C 201.628 339.033,202.656 339.032,203.246 338.979 C 203.835 338.926,203.289 338.883,202.032 338.884 C 200.775 338.885,200.292 338.928,200.960 338.981 " stroke="none" fill="#99ceea" fill-rule="evenodd"></path><path id="path4" d="M185.079 41.837 C 185.673 41.890,186.644 41.890,187.238 41.837 C 187.832 41.783,187.346 41.740,186.159 41.740 C 184.971 41.740,184.486 41.783,185.079 41.837 M193.723 41.838 C 194.461 41.890,195.604 41.889,196.262 41.837 C 196.921 41.785,196.317 41.743,194.921 41.744 C 193.524 41.744,192.985 41.787,193.723 41.838 M181.608 55.456 C 181.667 55.507,182.057 55.624,182.476 55.718 C 183.033 55.842,183.135 55.819,182.857 55.631 C 182.514 55.399,181.354 55.237,181.608 55.456 M183.619 55.987 C 183.619 56.057,183.962 56.291,184.381 56.508 C 184.800 56.725,185.143 56.845,185.143 56.775 C 185.143 56.705,184.800 56.471,184.381 56.254 C 183.962 56.037,183.619 55.917,183.619 55.987 M197.527 56.561 C 197.843 56.621,198.300 56.619,198.543 56.555 C 198.785 56.492,198.527 56.442,197.968 56.445 C 197.410 56.448,197.211 56.500,197.527 56.561 M200.254 56.889 C 200.533 57.009,200.933 57.107,201.143 57.107 C 201.383 57.107,201.336 57.026,201.016 56.889 C 200.737 56.769,200.337 56.671,200.127 56.671 C 199.887 56.671,199.934 56.751,200.254 56.889 M186.203 57.569 C 186.667 57.943,187.525 58.702,188.109 59.255 L 189.171 60.261 190.268 59.419 C 190.871 58.955,191.479 58.466,191.619 58.330 C 192.070 57.894,191.163 58.458,190.159 59.238 L 189.208 59.978 187.496 58.434 C 186.555 57.584,185.689 56.889,185.571 56.889 C 185.454 56.889,185.738 57.195,186.203 57.569 M168.038 59.849 C 167.641 60.316,167.412 60.692,167.531 60.684 C 167.778 60.668,168.996 59.188,168.855 59.075 C 168.804 59.033,168.436 59.382,168.038 59.849 M166.702 61.849 C 166.470 62.203,166.327 62.538,166.383 62.595 C 166.440 62.651,166.678 62.362,166.914 61.952 C 167.438 61.039,167.282 60.963,166.702 61.849 M213.905 61.645 C 214.429 61.700,215.286 61.700,215.810 61.645 C 216.333 61.591,215.905 61.546,214.857 61.546 C 213.810 61.546,213.381 61.591,213.905 61.645 M207.995 62.159 C 208.168 62.515,208.484 62.719,208.834 62.701 C 209.344 62.674,209.350 62.659,208.895 62.544 C 208.619 62.474,208.242 62.230,208.056 62.002 C 207.765 61.644,207.756 61.666,207.995 62.159 M218.540 62.222 C 218.819 62.342,219.219 62.440,219.429 62.440 C 219.669 62.440,219.622 62.360,219.302 62.222 C 219.022 62.102,218.622 62.004,218.413 62.004 C 218.173 62.004,218.220 62.085,218.540 62.222 M219.958 62.571 C 220.219 62.805,221.714 63.492,221.714 63.378 C 221.714 63.232,220.306 62.476,220.034 62.476 C 219.934 62.476,219.899 62.519,219.958 62.571 M122.731 65.143 C 122.734 65.702,122.786 65.900,122.846 65.584 C 122.907 65.268,122.905 64.811,122.841 64.568 C 122.778 64.326,122.728 64.584,122.731 65.143 M165.478 64.907 C 165.385 65.279,165.358 65.633,165.417 65.693 C 165.477 65.752,165.603 65.497,165.696 65.125 C 165.790 64.753,165.817 64.399,165.757 64.339 C 165.697 64.279,165.572 64.535,165.478 64.907 M223.005 64.326 C 223.063 64.366,223.683 64.833,224.381 65.363 L 225.651 66.327 224.508 65.291 C 223.879 64.721,223.260 64.255,223.132 64.255 C 223.004 64.254,222.947 64.287,223.005 64.326 M269.265 66.540 C 269.265 67.029,269.318 67.229,269.381 66.984 C 269.445 66.740,269.445 66.340,269.381 66.095 C 269.318 65.851,269.265 66.051,269.265 66.540 M165.158 68.190 C 165.159 69.029,165.207 69.341,165.263 68.884 C 165.320 68.428,165.319 67.742,165.261 67.361 C 165.203 66.979,165.157 67.352,165.158 68.190 M164.235 75.238 L 162.625 76.825 164.170 75.446 C 165.019 74.687,165.823 73.973,165.956 73.858 C 166.088 73.744,166.118 73.651,166.021 73.651 C 165.925 73.651,165.121 74.365,164.235 75.238 M229.199 76.269 C 229.203 77.778,229.281 78.750,229.372 78.427 C 229.584 77.675,229.576 75.270,229.359 74.286 C 229.266 73.867,229.194 74.759,229.199 76.269 M161.905 77.968 C 161.688 78.387,161.568 78.730,161.638 78.730 C 161.708 78.730,161.942 78.387,162.159 77.968 C 162.375 77.549,162.496 77.206,162.426 77.206 C 162.356 77.206,162.121 77.549,161.905 77.968 M123.487 82.032 C 123.487 82.521,123.540 82.721,123.604 82.476 C 123.668 82.232,123.668 81.832,123.604 81.587 C 123.540 81.343,123.487 81.543,123.487 82.032 M160.404 82.476 C 160.322 83.000,160.353 84.000,160.474 84.698 C 160.677 85.880,160.693 85.814,160.699 83.746 C 160.707 81.325,160.633 81.009,160.404 82.476 M268.503 83.302 C 268.503 83.790,268.556 83.990,268.620 83.746 C 268.683 83.502,268.683 83.102,268.620 82.857 C 268.556 82.613,268.503 82.813,268.503 83.302 M224.432 87.381 C 223.622 88.070,223.051 88.634,223.162 88.632 C 223.274 88.631,223.994 88.064,224.762 87.373 C 226.567 85.750,226.341 85.755,224.432 87.381 M123.747 88.762 C 123.749 89.321,123.801 89.519,123.862 89.203 C 123.923 88.887,123.921 88.430,123.857 88.188 C 123.793 87.945,123.744 88.203,123.747 88.762 M161.524 88.801 C 161.524 89.061,162.483 90.420,163.557 91.683 C 164.031 92.239,164.064 92.249,163.825 91.760 C 163.675 91.454,163.428 91.126,163.275 91.031 C 163.123 90.937,162.666 90.337,162.261 89.698 C 161.855 89.058,161.524 88.655,161.524 88.801 M268.263 90.286 C 268.265 90.984,268.314 91.240,268.373 90.854 C 268.431 90.468,268.430 89.896,268.369 89.584 C 268.309 89.271,268.261 89.587,268.263 90.286 M219.556 90.340 C 219.276 90.407,218.941 90.563,218.811 90.687 C 218.681 90.811,218.953 90.803,219.417 90.670 C 220.726 90.295,220.836 90.032,219.556 90.340 M210.941 91.881 L 210.453 92.571 211.075 92.009 C 211.622 91.514,212.028 91.437,214.483 91.365 L 217.270 91.282 214.349 91.237 C 211.438 91.191,211.427 91.193,210.941 91.881 M209.385 93.778 L 208.381 94.857 209.460 93.853 C 210.464 92.920,210.656 92.698,210.464 92.698 C 210.423 92.698,209.937 93.184,209.385 93.778 M166.095 93.692 C 166.444 93.977,166.844 94.212,166.984 94.213 C 167.256 94.215,166.797 93.863,165.968 93.435 C 165.631 93.260,165.674 93.347,166.095 93.692 M170.098 95.164 C 170.414 95.224,170.871 95.222,171.114 95.159 C 171.357 95.095,171.098 95.045,170.540 95.048 C 169.981 95.051,169.782 95.103,170.098 95.164 M173.330 95.164 C 173.887 95.226,174.439 95.410,174.556 95.574 C 174.702 95.780,174.737 95.754,174.666 95.492 C 174.596 95.233,174.206 95.102,173.441 95.082 C 172.326 95.052,172.325 95.053,173.330 95.164 M197.063 96.016 C 196.793 96.287,196.575 96.651,196.579 96.825 C 196.583 97.000,196.716 96.914,196.875 96.635 C 197.290 95.903,197.623 95.747,198.159 96.034 C 198.419 96.173,198.744 96.249,198.882 96.203 C 199.020 96.157,198.778 95.986,198.344 95.822 C 197.661 95.564,197.489 95.590,197.063 96.016 M202.413 96.508 L 200.508 96.670 202.286 96.712 C 203.263 96.735,204.235 96.643,204.444 96.508 C 204.654 96.373,204.711 96.281,204.571 96.304 C 204.432 96.327,203.460 96.419,202.413 96.508 M176.550 98.792 C 176.612 98.980,177.286 99.651,178.046 100.283 C 178.806 100.915,179.086 101.099,178.667 100.691 C 178.248 100.283,177.574 99.613,177.170 99.201 C 176.767 98.789,176.487 98.605,176.550 98.792 M193.524 100.370 C 192.333 101.460,192.784 101.229,194.231 100.006 C 194.690 99.619,194.976 99.306,194.866 99.312 C 194.756 99.318,194.152 99.794,193.524 100.370 M268.260 102.095 C 268.260 102.724,268.309 102.981,268.370 102.667 C 268.430 102.352,268.430 101.838,268.370 101.524 C 268.309 101.210,268.260 101.467,268.260 102.095 M123.752 102.857 C 123.752 103.486,123.801 103.743,123.862 103.429 C 123.922 103.114,123.922 102.600,123.862 102.286 C 123.801 101.971,123.752 102.229,123.752 102.857 M189.587 102.485 C 188.952 102.791,188.931 102.826,189.460 102.697 C 190.180 102.521,190.989 102.109,190.603 102.114 C 190.463 102.116,190.006 102.283,189.587 102.485 M184.813 103.174 C 185.575 103.304,186.596 103.306,187.226 103.177 C 188.153 102.988,187.953 102.954,185.905 102.951 C 183.681 102.949,183.595 102.966,184.813 103.174 M244.508 110.666 C 246.079 110.710,248.651 110.710,250.222 110.666 C 251.794 110.621,250.508 110.585,247.365 110.585 C 244.222 110.585,242.937 110.621,244.508 110.666 M123.517 113.778 C 123.517 114.965,123.561 115.451,123.615 114.857 C 123.668 114.263,123.668 113.292,123.615 112.698 C 123.561 112.105,123.517 112.590,123.517 113.778 M244.892 124.119 C 245.278 124.177,245.850 124.176,246.162 124.115 C 246.475 124.055,246.159 124.007,245.460 124.009 C 244.762 124.011,244.506 124.060,244.892 124.119 M127.302 127.159 C 127.546 127.223,127.946 127.223,128.190 127.159 C 128.435 127.095,128.235 127.043,127.746 127.043 C 127.257 127.043,127.057 127.095,127.302 127.159 M229.646 127.746 C 229.646 128.235,229.698 128.435,229.762 128.190 C 229.826 127.946,229.826 127.546,229.762 127.302 C 229.698 127.057,229.646 127.257,229.646 127.746 M172.453 140.392 C 172.123 140.749,172.128 140.777,172.500 140.634 C 172.731 140.545,172.975 140.609,173.043 140.776 C 173.112 140.946,173.175 140.890,173.186 140.650 C 173.215 140.038,172.887 139.923,172.453 140.392 M223.182 142.487 C 223.120 142.913,223.164 143.319,223.280 143.391 C 223.397 143.463,223.492 143.115,223.492 142.618 C 223.492 141.511,223.335 141.444,223.182 142.487 M234.240 145.778 C 234.240 146.686,234.286 147.057,234.342 146.603 C 234.399 146.149,234.399 145.406,234.342 144.952 C 234.286 144.498,234.240 144.870,234.240 145.778 M120.186 149.333 C 120.186 149.822,120.238 150.022,120.302 149.778 C 120.366 149.533,120.366 149.133,120.302 148.889 C 120.238 148.644,120.186 148.844,120.186 149.333 M135.678 154.413 C 135.678 154.902,135.730 155.102,135.794 154.857 C 135.858 154.613,135.858 154.213,135.794 153.968 C 135.730 153.724,135.678 153.924,135.678 154.413 M216.139 158.588 C 215.972 158.789,215.530 159.001,215.156 159.058 L 214.476 159.162 215.135 159.200 C 215.511 159.222,215.992 159.020,216.254 158.730 C 216.507 158.451,216.653 158.222,216.578 158.222 C 216.504 158.222,216.307 158.387,216.139 158.588 M244.317 167.746 C 244.791 168.235,245.236 168.635,245.306 168.635 C 245.376 168.635,245.045 168.235,244.571 167.746 C 244.098 167.257,243.653 166.857,243.583 166.857 C 243.513 166.857,243.844 167.257,244.317 167.746 M242.286 168.847 C 242.286 169.010,242.029 169.156,241.714 169.172 C 241.244 169.197,241.226 169.223,241.614 169.323 C 242.121 169.454,242.746 169.010,242.459 168.724 C 242.364 168.628,242.286 168.684,242.286 168.847 M139.747 172.063 C 139.749 172.622,139.801 172.821,139.862 172.505 C 139.923 172.189,139.921 171.732,139.857 171.489 C 139.793 171.246,139.744 171.505,139.747 172.063 M143.941 174.406 C 144.398 174.463,145.083 174.462,145.465 174.404 C 145.846 174.346,145.473 174.299,144.635 174.301 C 143.797 174.302,143.485 174.350,143.941 174.406 M251.246 176.187 C 251.913 176.239,252.942 176.239,253.531 176.186 C 254.121 176.132,253.575 176.089,252.317 176.090 C 251.060 176.091,250.578 176.135,251.246 176.187 M263.562 176.186 C 264.160 176.240,265.074 176.239,265.594 176.185 C 266.114 176.130,265.625 176.086,264.508 176.087 C 263.390 176.088,262.965 176.133,263.562 176.186 M241.971 176.434 C 242.287 176.494,242.744 176.492,242.987 176.428 C 243.230 176.365,242.971 176.315,242.413 176.318 C 241.854 176.321,241.655 176.373,241.971 176.434 M244.387 286.984 C 244.387 287.613,244.436 287.870,244.497 287.556 C 244.557 287.241,244.557 286.727,244.497 286.413 C 244.436 286.098,244.387 286.356,244.387 286.984 M147.614 287.746 C 147.614 288.235,147.667 288.435,147.731 288.190 C 147.795 287.946,147.795 287.546,147.731 287.302 C 147.667 287.057,147.614 287.257,147.614 287.746 M245.900 312.127 C 245.900 312.616,245.952 312.816,246.016 312.571 C 246.080 312.327,246.080 311.927,246.016 311.683 C 245.952 311.438,245.900 311.638,245.900 312.127 M146.091 312.635 C 146.091 313.124,146.143 313.324,146.207 313.079 C 146.271 312.835,146.271 312.435,146.207 312.190 C 146.143 311.946,146.091 312.146,146.091 312.635 M188.892 338.973 C 189.208 339.034,189.665 339.032,189.908 338.968 C 190.151 338.905,189.892 338.855,189.333 338.858 C 188.775 338.861,188.576 338.913,188.892 338.973 M204.889 338.977 C 205.343 339.034,206.086 339.034,206.540 338.977 C 206.994 338.921,206.622 338.875,205.714 338.875 C 204.806 338.875,204.435 338.921,204.889 338.977 " stroke="none" fill="#60b9e4" fill-rule="evenodd"></path></g></svg>